<svg preserveAspectRatio="xMidYMid meet" data-bbox="0 0.578 476.258 489.822" xmlns="http://www.w3.org/2000/svg" viewBox="0 0 451 491" height="491" width="451" data-type="ugc" role="presentation" aria-hidden="true" aria-label="">
    <g>
        <g clip-path="url(#0cb9cb10-2a84-418c-b2a5-157b072537e5_comp-lqcsg516__c39929e0-e618-4674-bf90-ab2d9bd91531)">
            <path fill="#ffffff" d="M450.561 223.513v43.952c0 123.124-99.811 222.935-222.935 222.935h-4.691C99.811 490.4 0 390.589 0 267.465v-43.952C0 100.389 99.811.578 222.935.578h4.691c123.124 0 222.935 99.811 222.935 222.935z"></path>
            <path stroke-linejoin="round" stroke-linecap="round" stroke="#3C5657" d="M476.258 413.249c-32.248 0-42.592 13.03-71.494 13.03s-31.927-12.726-61.746-12.854c-28.288-.122-43.82 21.044-73.297 9.21-14.826-5.953-10.801-19.289-15.529-24.7-3.157-3.613-6.825-3.618-9.413-9.351-3.679-8.147-8.695-20.629-10.759-27.845M35.435 409.995c31.031 0 41.984 12.788 68.451 12.83 26.468.042 28.293-10.776 54.022-11.994 24.011-1.136 40.197 14.53 70.192 11.637 24.824-1.394 25.94-17.728 25.3-20.159-.8-3.035-6.414-6.533-13.601-4.987-4.11.885-6.506-2.413-8.517-4.968m0 0c-1.213-1.54-2.363-3.195-3.883-4.583-4.039-3.688-21.31 1.148-8.919 1.577 5.494.189 9.735 1.597 12.802 3.006Zm0 0c3.85 1.77 5.852 3.543 6.162 2.916.091-.183.106-.665.058-1.346m0 0c-.25-3.494-2.185-12.225-4.215-12.701-2.424-.57-2.038 9.574 3.407 12.306.282.142.551.274.808.395Zm0 0c4.695 2.228 5.195 1.124 4.974-3.769-.147-3.267-5.06-9.625-7.712-17.683-1.384-4.206-3.866-8.651-6.592-12.167m0 0c-2.497-3.22-5.198-5.66-7.447-6.422-4.705-1.595-4.839.989 4.272 5.165 1.166.534 2.22.948 3.175 1.257Zm0 0c2.62.848 4.491.899 5.848.434m0 0c1.857-.637 2.75-2.241 3.283-4.094m-3.283 4.094a43.983 43.983 0 0 1-.561-2.146m3.844-1.948c.131-.456.24-.927.336-1.402m-.336 1.402c-1.362.96-2.658 1.697-3.844 1.948m3.844-1.948a42.688 42.688 0 0 0 1.544-1.15m-1.208-.252c.276-1.36.446-2.757.722-3.938m-.722 3.938c.385.076.789.16 1.208.252m-1.208-.252c-2.389-.465-4.075-.578-4.42.005-.266.45-.153 1.639.24 3.345m4.902-7.288c.184-.789.415-1.482.756-2.003 1.361-2.086 11.506-8.968 18.586-14.146m-19.342 16.149c2.775-.621 5.375-2.015 7.163-3.876 4.792-4.992 14.335-6.185 18.407-5.578 13.435 1.999 24.1-13.984 24.219-17.229.13-3.567-24.667 6.964-27.057 8.811-.542.418-1.78 1.007-3.39 1.723m-19.342 16.149c-1.582.353-3.222.455-4.8.249m24.142-16.398c3.067-2.243 5.558-4.166 6.513-5.242 3.121-3.519 5.101-23.635-4.089-26.253-9.191-2.618-23.594 16.859-25.185 21.866-1.591 5.007 3.906 23.99 4.328 17.61.199-3.001 2.745-7.083 6.531-10.152 10.346-8.384 10.888-20.175 12.191-20.08 1.468.107-3.029 16.476-8.752 21.874-3.055 2.882-5.34 6.215-6.721 8.428m15.184-8.051c-4.531 2.013-12.005 5.026-15.184 8.051m0 0c-1.313 2.102-1.81 3.194-1.379 1.928.217-.637.7-1.283 1.379-1.928Zm-8.958 8.347c-3.077-.402-5.921-1.977-7.657-5.145-5.262-9.609-8.151-25.138-6.32-21.751 1.83 3.387 4.881-.855 11.236 6.274 5.672 6.365 7.258 17.639 2.741 20.622Zm0 0a4.449 4.449 0 0 1-1.895.693c-1.527.204-3.992-1.116-6.764-3.578m0 0c-3.684-3.274-7.909-8.567-11.19-14.986-5.748-11.246-8.089-17.487-8.006-27.504.081-9.62 11.252-32.568 9.921-28.38-1.33 4.188-4.242 25.389-1.538 38.6 2.243 10.956 6.742 23.684 10.813 32.27Zm0 0c2.065 4.354 4.019 7.642 5.513 9.095.891.866 1.918 1.067 3.044.829m5.388-3.098c3.388-2.626 7.065-5.974 10.421-6.339 12.184-1.327 23.677 9.061 10.858 10.83-3.663.505-14.508-3.004-21.279-4.491Zm-4.172-27.548c-2.619-7.847 5.108-10.403 6.553-17.16 1.444-6.757-1.398-13.572-3.841-17.255-3.983-6.008.858-17.874-1.131-15.398-1.989 2.475-10.857 6.136-15.913 13.85-5.056 7.715-4.385 28.315.95 31.713.966.616 7.926 4.197 7.05.837-3.387-13.002-1.264-22.585 2.145-27.581 3.936-5.765 15.144-15.339 18.78-14.484 3.637.855-3.911 21.312-2.703 21.295 1.208-.017 2.627-5.744 8.552-11.78 5.997-6.108 9.958-8.534 17.294 4.42 7.126 12.587-3.467 32.507-8.885 35.997m63.804-36.276c-2.651 2.386 4.702-8.791 14.925-8.791 7.36 0 11.858 1.84 15.436 4.906 2.924 2.506 10.325 2.556 1.84 3.476-1.115.121-3.297-.607-4.6-1.329-3.537-1.956-6.453-3.104-13.085-2.964-9.712.204-13.086 4.804-15.079 7.206-6.286 7.577-9.417 12.104-3.935 27.55 3.935 11.092 7.156 18.197-.409 21.263-10.343 4.193-14.005-2.862-18.605-3.68-4.601-.818-5.725 3.578-11.194.767-5.382-2.766-1.29-12.413 4.396-6.951 5.162 4.958-4.875 29.006-13.75 32.661-4.344 1.789 5.623 15.845 19.423 17.174 15.879 1.529 22.285-3.68 24.841-9.507 2.494-5.686-2.913-6.082-9.252-4.344-6.337 1.738-22.029 2.607-31.74-.256-9.233-2.721 1.788.767 10.069-1.788 8.28-2.556 14.976-2.812 20.7-2.301 5.725.511 9.507 3.406 11.756.205 2.658-3.782-3.066-9.507-9.047-9.558-6.073-.052-7.156 2.045-8.893 2.249-1.737.204-3.267-2.164-7.309-2.301-4.549-.153-17.132 7.245-22.489 7.871-9.634 1.127-42.526-5.52-28.726 16.561 13.801 22.08 44.775 31.383 58.473 27.907 13.35-3.387 27.108-31.041 32.508-47.842 5.52-17.174 18.168-25.166 19.321-53.975.716-17.89 3.927-21.654 2.454-28.828-1.534-7.462-13.801-14.72-28.214-6.134-14.414 8.587-14.926 25.659-15.538 27.192-.614 1.533 11.755-1.635 20.956-.613 9.2 1.022 17.889-4.191 14.925-5.01-2.965-.817-4.795-5.014-10.53-6.337-5.316-1.227-9.098-.716-13.455 1.2-4.144 1.822-5.15 3.399-6.172 4.32l-.001.001Z" fill="none"></path>
        </g>
        <defs fill="none">
            <clipPath id="0cb9cb10-2a84-418c-b2a5-157b072537e5_comp-lqcsg516__c39929e0-e618-4674-bf90-ab2d9bd91531">
                <path fill="#ffffff" d="M450.561 223.518v43.942c0 123.126-99.814 222.94-222.94 222.94h-4.681C99.814 490.4 0 390.586 0 267.46v-43.942C0 100.392 99.814.578 222.94.578h4.681c123.126 0 222.94 99.814 222.94 222.94z"></path>
            </clipPath>
        </defs>
    </g>
</svg>