<svg preserveAspectRatio="xMidYMid meet" data-bbox="5.83 0 31.472 51.141" xmlns="http://www.w3.org/2000/svg" viewBox="5.83 0 31.472 51.141" height="51" width="40" data-type="color" role="presentation" aria-hidden="true" aria-label="">
    <g>
        <g clip-path="url(#a8a535ec-f070-4763-95d7-a41c64f4d5f6_comp-lnvpus35__item-j9ples3e)">
            <path fill="#F5F0EE" d="m35.284 34.747-.063.196-2.554-.817a17.655 17.655 0 0 0-.198-7.681l2.645-.799.056.19 1.983-.6.042-.012-.242-.802-1.983.6-.041.012.058.196-2.632.793a17.382 17.382 0 0 0-2.842-5.79l1.944-2.055.144.138 1.425-1.506.03-.03-.607-.576-1.425 1.506-.031.03.148.142-1.896 2.005a17.39 17.39 0 0 0-5.7-4.692l.647-2.643.192.048.503-2.055-.813-.198-.503 2.055.198.048-.623 2.55c-.71-.343-1.45-.644-2.216-.892-.37-1.955-.922-3.927-1.4-5.012-.42-.957-1.826-4.03-2.536-4.03-.013 0-.024 0-.037.003-.619.102-1.48 4.018-1.575 4.735-.077.58-.188 2.567-.255 3.899-.49-1.343-1.084-2.9-1.565-4.17l-.227-.592c-.569-1.495-1.784-3.713-3.099-5.648C9.574 2.299 7.93 0 7.133 0a.338.338 0 0 0-.255.144c-.727.924-1.514 11.214-.708 15.208.67 3.321 3.151 7.31 4.633 9.69l.135.217c.349.56.654 1.048.778 1.303h-.004c-.628.32-1.489.754-1.913 2.626-.37 1.625.152 3.214 1.697 5.155 2.09 2.629 4.984 4.564 7.048 5.73h.006c.015.047.033.091.055.148.241.636.747 1.959.525 3.382-.353 2.268-1.576 3.874-1.848 4.208a7.6 7.6 0 0 0 .017.316 17.516 17.516 0 0 0 5.98-1.715l.651 2.628-.191.048.51 2.053.812-.201-.51-2.053-.198.05-.675-2.724a17.394 17.394 0 0 0 5.93-5.099l1.823 2.1-.15.132 1.386 1.597.632-.547-1.386-1.597-.155.135-1.892-2.18a17.458 17.458 0 0 0 2.716-6.197l2.512.804-.06.19 2.013.645.255-.798-2.016-.645-.002-.006Zm-23.548-7.68.056-.032c1.517-.861 3.422-.504 4.335-.055.431.212 2.7 1.659 2.79 1.741l.047-.043.057-.03-.018-.018.166-.207.046-.046c-.135-.133-2.556-1.632-2.942-1.822-.872-.43-2.6-.771-4.145-.172-.135-.274-.412-.728-.94-1.575-1.466-2.356-3.92-6.298-4.573-9.539-.85-4.214.072-13.992.588-14.81.787.227 4.332 4.991 5.716 8.639l.203.534a278.345 278.345 0 0 1 1.965 5.273l.131.515c1.077 4.195 1.334 5.193 2.678 5.629l2.197 1c1 .656 1.27 1.09 1.728 1.512.414.384.667.813.998 1.21 1.94 2.366 2.778 4.419 2.72 6.657-.029 1.046.56 3.212.95 4.644l.008.03c.077.281.144.53.197.73-.207.39-2.219 2.212-2.966 2.622-1.469.804-2.916.865-4.988.211-2.02-1.142-4.855-3.04-6.895-5.605-1.45-1.824-1.946-3.295-1.61-4.774.324-1.426.987-1.953 1.496-2.225l.005.006Zm9.122-8.531c-.11.832-.403 1.708-.62 2.351-.093.275-.16.48-.204.636l-1.97-.895c-1.133-.368-1.351-1.223-2.403-5.322l-.127-.492c.033-.706.203-4.188.305-4.955.192-1.454.93-3.86 1.216-4.313.353.29 1.343 2.064 2.073 3.728.873 1.992 2.022 7.037 1.732 9.26l-.002.002Z" data-color="1"></path>
        </g>
        <defs fill="none">
            <clipPath id="a8a535ec-f070-4763-95d7-a41c64f4d5f6_comp-lnvpus35__item-j9ples3e">
                <path fill="#ffffff" d="M40 0v51H0V0h40z"></path>
            </clipPath>
        </defs>
    </g>
</svg>