<svg preserveAspectRatio="xMidYMid meet" data-bbox="-37.935 0.945 682.867 489.822" xmlns="http://www.w3.org/2000/svg" viewBox="0 0 451 491" height="491" width="451" data-type="ugc" role="presentation" aria-hidden="true" aria-label="">
    <g>
        <g clip-path="url(#7fd7cd7f-e18f-4cb7-8f11-f245e162794d_comp-lqcsg516__003617af-3d4d-4818-8541-38e1ac04c0c2)">
            <path fill="#ffffff" d="M450.684 223.88v43.952c0 123.124-99.811 222.935-222.935 222.935h-4.691C99.934 490.767.123 390.956.123 267.832V223.88C.123 100.756 99.934.945 223.058.945h4.691c123.124 0 222.935 99.811 222.935 222.935z"></path>
            <g clip-path="url(#f7918e8a-837a-4c7e-bae4-c77478fa5387_comp-lqcsg516__003617af-3d4d-4818-8541-38e1ac04c0c2)">
                <path stroke-linejoin="round" stroke-linecap="round" stroke-width="1.219" stroke="#3C5657" d="M402.984 344.238c-3.178-7.82-17.148-14.949-25.579-10.427-7.881 4.225-.611-8.074 4.643-16.13 5.498-8.431 11.249-23.505 5.977-26.882-4.389-2.81-24.518-1.638-34.13 10.425-11.071 13.892-15.35 34.782-26.225 42.724-1.835 1.341-3.493-6.21-18.082-8.121-13.93-1.826-19.022 7.759-21.14-2.505-1.236-5.989.733-13.93-6.354-27.86s-19.184-21.139-31.281-21.995c-12.435-.88-13.441-.489-10.508 13.196 2.932 13.686 5.745 24.214 10.264 30.059 6.109 7.902 2.199 2.688-9.775 2.688-11.975 0-20.284 11.487-22.972 15.641-2.688 4.154 17.351 12.464 36.168 15.885 18.818 3.421 17.352 4.154 17.352 4.154s-4.962-5.808-7.699-12.802c-3.788-9.682-7.026-29.355.367-35.342 4.806-3.892 23.828 21.75 24.316 32.381m38.957-10.56c4.399-9.369 14.834-18.631 17.385-35.016 3.483-22.36-9.297-34.458-11.985-34.458-2.688 0-19.947 10.265-23.677 25.844-3.283 13.715 1.682 28.043-2.228 27.921-3.278-.102 1.283-15.396-5.804-31.037-7.088-15.641-19.49-20.773-21.445-18.329-1.955 2.444-6.02 11.957-6.782 16.863m-29.586 25.919s-5.81-3.271-14.668-2.866c-8.921.407-18.465 3.724-18.465 5.557 0 1.222.252 7.688 3.761 12.114 5.173 6.523 7.712 6.009 3.789 10.596-5.001 5.847-3.841 10.399 15.322 19.899 18.851 9.345 44.331 9.164 35.461 8.939-8.87-.225-17.805-1.556-27.323 3.543-10.264 5.498-6.806 11.812-3.238 15.702 3.459 3.77-2.749-6.904 6.904-12.159 9.25-5.034 25.253-3.136 32.259-1.955 7.109 1.199 16.608 6.676 15.508 8.142-1.1 1.466-11.598 9.332-27.483 11.653-15.885 2.321-25.783-4.277-24.316-2.444 1.466 1.833 15.03 11.608 26.638 12.219 11.608.611 24.011-7.881 29.448-12.83 5.437-4.949 6.04-11.069 3.849-11.303-5.152-.55-7.231-1.735-15.029-6.476-8.208-4.989-17.413-17.351-14.48-22.515 2.932-5.164 13.197-1.984 19.612.948 6.415 2.933 19.403-3.169 27.245 3.254 8.211 6.725-2.017 18.405 2.748 14.68 4.765-3.724 1.899-7.303 8.863-18.883 6.966-11.579 41.424-29.294 41.24-16.647-.183 12.646-18.329 30.426-26.943 34.275s-20.528 3.116-20.528 3.116 5.184 2.293 15.397 1.466c9.056-.733 17.167-1.711 34.275-9.408 17.194-7.738 35.741-27.066 29.326-12.802-6.415 14.264-31.938 33.736-39.224 28.259-4.024-3.025-11.476-4.82-27.31-.55-9.197 2.479-20.894-6.966-25.66-1.833-4.765 5.132 2.924 11.369 11.548 15.762 8.635 4.399 24.148 7.553 28.405 5.211 9.696-5.336 12.66-15.287 13.639-14.866.327.14-.702 8.308-4.798 13.456-5.218 6.56-13.954 11.922-27.029 9.478-16.001-2.99-26.078-12.171-26.714-21.709-1.013 3.558-.814 22.896 21.995 32.053 45.349 18.207 69.244-14.357 112.763-14.169 45.876.198 50.531 19.776 94.994 19.776 44.464 0 60.378-20.046 109.99-20.046m-344.902-8.228s-8.023 24.182-41.561 27.418c-46.145 4.451-71.047-19.65-107.987-17.903-39.582 1.873-42.39 18.516-83.11 18.452-40.719-.065-57.568-19.738-105.307-19.738" fill="none"></path>
            </g>
        </g>
        <defs fill="none">
            <clipPath id="7fd7cd7f-e18f-4cb7-8f11-f245e162794d_comp-lqcsg516__003617af-3d4d-4818-8541-38e1ac04c0c2">
                <path fill="#ffffff" d="M450.684 223.885v43.942c0 123.126-99.814 222.94-222.94 222.94h-4.681c-123.126 0-222.94-99.814-222.94-222.94v-43.942C.123 100.759 99.937.945 223.063.945h4.681c123.126 0 222.94 99.814 222.94 222.94z"></path>
            </clipPath>
            <clipPath id="f7918e8a-837a-4c7e-bae4-c77478fa5387_comp-lqcsg516__003617af-3d4d-4818-8541-38e1ac04c0c2">
                <path transform="translate(-45.157 215.481)" fill="#ffffff" d="M697.306 0v261.49H0V0h697.306z"></path>
            </clipPath>
        </defs>
    </g>
</svg>