<svg preserveAspectRatio="xMidYMid meet" data-bbox="0.793 0 230.158 138.85" xmlns="http://www.w3.org/2000/svg" viewBox="0.793 0 230.158 138.85" height="139" width="231" data-type="color" role="presentation" aria-hidden="true" aria-label="">
    <g>
        <g clip-path="url(#2e998d16-116c-43dc-9462-97aa7a831974_comp-lnx8l0u8_r_comp-lnx7gdnl)">
            <path fill="#F5F0EE" d="m3.856 90.916 10.397 20.625 9.308-20.625h1.913v23.099h-2.738V94.546l-8.774 19.469H12.44L2.707 94.647v19.368h-.758v-20.82l-1.156-2.28h3.07-.007Z" data-color="1"></path>
            <path fill="#F5F0EE" d="M42.63 90.457h.265c1.67.02 3.258.338 4.752.94 1.494.608 2.805 1.433 3.927 2.494a11.64 11.64 0 0 1 2.657 3.759c.65 1.453.974 3.055.974 4.82 0 1.764-.325 3.339-.974 4.799a11.514 11.514 0 0 1-2.657 3.779 12.618 12.618 0 0 1-3.927 2.494c-1.494.602-3.083.92-4.752.94h-.264a13.04 13.04 0 0 1-4.752-.94c-1.494-.608-2.806-1.433-3.928-2.494a11.65 11.65 0 0 1-2.67-3.779c-.663-1.46-.987-3.062-.987-4.799 0-1.738.331-3.367.987-4.82a11.706 11.706 0 0 1 2.67-3.759 12.636 12.636 0 0 1 3.928-2.494 13.053 13.053 0 0 1 4.752-.94Zm-.297 23.268c1.582 0 2.995-.365 4.239-1.088a10.162 10.162 0 0 0 3.137-2.84 13.302 13.302 0 0 0 1.933-3.927c.44-1.454.662-2.893.662-4.327 0-1.433-.21-2.67-.628-3.927a10.249 10.249 0 0 0-1.812-3.32 8.725 8.725 0 0 0-2.886-2.277c-1.136-.562-2.427-.845-3.88-.845-1.61 0-3.022.365-4.24 1.088a9.97 9.97 0 0 0-3.082 2.84 13.264 13.264 0 0 0-1.913 3.927 14.884 14.884 0 0 0-.662 4.326c0 1.433.21 2.67.628 3.907.42 1.244 1.014 2.346 1.799 3.299a8.596 8.596 0 0 0 2.873 2.292c1.135.575 2.413.858 3.846.858l-.014.014Z" data-color="1"></path>
            <path fill="#F5F0EE" d="M70.766 90.457h.264c1.67.02 3.258.338 4.752.94 1.494.608 2.806 1.433 3.928 2.494a11.64 11.64 0 0 1 2.656 3.759c.65 1.453.974 3.055.974 4.82 0 1.764-.325 3.339-.974 4.799a11.515 11.515 0 0 1-2.656 3.779 12.619 12.619 0 0 1-3.928 2.494 13.04 13.04 0 0 1-4.752.94h-.264a13.042 13.042 0 0 1-4.752-.94c-1.494-.608-2.805-1.433-3.928-2.494a11.65 11.65 0 0 1-2.67-3.779c-.662-1.46-.987-3.062-.987-4.799 0-1.738.331-3.367.987-4.82a11.706 11.706 0 0 1 2.67-3.759 12.636 12.636 0 0 1 3.928-2.494 13.054 13.054 0 0 1 4.752-.94Zm-.297 23.268c1.582 0 2.994-.365 4.238-1.088a10.162 10.162 0 0 0 3.137-2.84 13.304 13.304 0 0 0 1.933-3.927c.44-1.454.663-2.893.663-4.327 0-1.433-.21-2.67-.629-3.927A10.25 10.25 0 0 0 78 94.296a8.725 8.725 0 0 0-2.886-2.277c-1.136-.562-2.427-.845-3.88-.845-1.61 0-3.022.365-4.239 1.088a9.97 9.97 0 0 0-3.082 2.84A13.262 13.262 0 0 0 62 99.029a14.884 14.884 0 0 0-.663 4.326c0 1.433.21 2.67.629 3.907.419 1.244 1.014 2.346 1.798 3.299a8.597 8.597 0 0 0 2.873 2.292c1.136.575 2.413.858 3.846.858l-.013.014Z" data-color="1"></path>
            <path fill="#F5F0EE" d="M86.794 90.916h3.266l12.938 19.205V90.916h.757v23.099h-1.419L88.776 93.85v20.165h-.724V92.761l-1.258-1.845Z" data-color="1"></path>
            <path fill="#F5F0EE" d="M118.938 114.015V90.916h4.124c1.805 0 3.339.203 4.603.608 1.264.406 2.292.96 3.083 1.67.791.703 1.372 1.521 1.73 2.46a8.2 8.2 0 0 1 .548 2.955c0 1.541-.379 2.873-1.136 3.995-.757 1.122-1.845 2.015-3.251 2.67l4.914 8.748h-2.934l-4.556-8.018c-.487.088-.96.149-1.433.183-.473.034-.94.047-1.399.047h-1.548v7.788h-2.738l-.007-.007Zm2.738-8.511h.365c1.21 0 2.312-.135 3.299-.412.987-.277 1.845-.703 2.555-1.285.717-.581 1.264-1.325 1.649-2.23.386-.9.575-1.981.575-3.232 0-.838-.135-1.656-.399-2.46a5.653 5.653 0 0 0-1.284-2.143c-.588-.622-1.366-1.136-2.312-1.521-.947-.386-2.109-.575-3.495-.575h-.96v13.858h.007Z" data-color="1"></path>
            <path fill="#F5F0EE" d="m136.838 114.015 7.822-19.665-1.386-3.434h2.934l9.403 23.099h-2.934l-1.879-4.617h-11.316l-1.812 4.617h-.832Zm13.662-5.347-5.414-13.33-5.314 13.33H150.5Z" data-color="1"></path>
            <path fill="#F5F0EE" d="M160.904 114.015V90.916h5.212c1.366 0 2.589.101 3.678.311 1.088.21 2.014.527 2.771.96.757.426 1.339.98 1.731 1.65.399.669.595 1.48.595 2.426 0 2.265-1.109 3.88-3.333 4.854l-.892.399c1.757.439 3.136 1.156 4.123 2.143.987.987 1.494 2.224 1.521 3.697 0 1.035-.216 1.961-.642 2.792-.426.825-1.048 1.521-1.845 2.096-.805.574-1.785 1.014-2.954 1.318-1.17.311-2.475.46-3.928.46h-6.037v-.007Zm2.738-22.308v9.701h1.42c.987 0 1.913-.082 2.771-.251.859-.162 1.602-.446 2.245-.845a4.49 4.49 0 0 0 1.521-1.581c.371-.663.561-1.488.561-2.475v-.067c0-1.386-.568-2.481-1.697-3.286-1.136-.804-2.765-1.203-4.901-1.203h-1.913l-.007.007Zm0 10.431v11.086h2.542c.946 0 1.845-.101 2.704-.297.858-.196 1.609-.514 2.258-.96a4.751 4.751 0 0 0 1.548-1.751c.385-.724.574-1.629.574-2.704 0-1.65-.574-2.961-1.717-3.928-1.142-.966-2.67-1.453-4.59-1.453h-3.332l.013.007Z" data-color="1"></path>
            <path fill="#F5F0EE" d="M183.239 114.015V90.916h5.212c1.366 0 2.589.101 3.678.311 1.088.21 2.014.527 2.771.96.757.426 1.339.98 1.731 1.65.399.669.595 1.48.595 2.426 0 2.265-1.109 3.88-3.333 4.854l-.892.399c1.757.439 3.136 1.156 4.123 2.143.987.987 1.494 2.224 1.521 3.697 0 1.035-.216 1.961-.642 2.792-.426.825-1.048 1.521-1.845 2.096-.805.574-1.785 1.014-2.954 1.318-1.17.311-2.475.46-3.928.46h-6.037v-.007Zm2.738-22.308v9.701h1.42c.987 0 1.913-.082 2.771-.251.859-.162 1.602-.446 2.245-.845a4.49 4.49 0 0 0 1.521-1.581c.371-.663.561-1.488.561-2.475v-.067c0-1.386-.568-2.481-1.697-3.286-1.136-.804-2.765-1.203-4.901-1.203h-1.913l-.007.007Zm0 10.431v11.086h2.542c.946 0 1.845-.101 2.704-.297.858-.196 1.609-.514 2.258-.96a4.751 4.751 0 0 0 1.548-1.751c.385-.724.574-1.629.574-2.704 0-1.65-.574-2.961-1.717-3.928-1.142-.966-2.67-1.453-4.59-1.453h-3.332l.013.007Z" data-color="1"></path>
            <path fill="#F5F0EE" d="M205.567 90.916h2.704v23.099h-2.704V90.916Z" data-color="1"></path>
            <path fill="#F5F0EE" d="M230.944 90.916v.723h-7.456v22.376h-2.704V91.639h-7.456v-.723h17.623-.007Z" data-color="1"></path>
            <path fill="#F5F0EE" d="m134.926 48.685-.088.278-3.576-1.143a24.827 24.827 0 0 0-.278-10.762l3.705-1.115.081.264 2.778-.839.061-.02-.338-1.122-2.778.838-.061.02.081.278-3.684 1.108a24.358 24.358 0 0 0-3.982-8.112l2.725-2.88.202.19 1.995-2.11.04-.04-.852-.804-1.994 2.109-.04.04.209.196-2.656 2.806a24.349 24.349 0 0 0-7.991-6.578l.906-3.704.27.067.704-2.88-1.136-.277-.703 2.88.277.068-.872 3.57c-.994-.48-2.028-.9-3.103-1.252-.52-2.737-1.291-5.502-1.96-7.023-.588-1.339-2.562-5.645-3.556-5.645h-.054c-.865.142-2.075 5.631-2.211 6.639-.108.81-.263 3.596-.358 5.462a554.342 554.342 0 0 0-2.19-5.841l-.318-.832c-.798-2.095-2.501-5.205-4.34-7.915C98.901 3.224 96.596 0 95.481 0c-.135 0-.257.074-.358.203C94.102 1.5 93 15.913 94.129 21.517c.94 4.658 4.414 10.242 6.496 13.58l.19.305c.486.784.912 1.467 1.088 1.825h-.007c-.879.447-2.082 1.055-2.683 3.678-.521 2.278.216 4.502 2.379 7.226 2.927 3.684 6.983 6.395 9.876 8.024h.007c.02.068.047.129.074.21.338.892 1.048 2.744.737 4.739-.493 3.177-2.21 5.428-2.589 5.894-.007 0 .021.44.021.44a24.538 24.538 0 0 0 8.375-2.4l.913 3.684-.271.068.717 2.88 1.136-.284-.717-2.88-.277.067-.947-3.819a24.363 24.363 0 0 0 8.309-7.145l2.555 2.947-.21.183 1.94 2.237.886-.77-1.94-2.238-.217.19-2.649-3.056a24.426 24.426 0 0 0 3.805-8.687l3.522 1.129-.087.264 2.825.906.358-1.116-2.825-.906.007-.007ZM101.93 37.924l.081-.048c2.123-1.203 4.793-.71 6.071-.074.601.297 3.785 2.325 3.907 2.44l.067-.06.082-.041s-.021-.014-.027-.02l.229-.291.061-.068c-.189-.189-3.583-2.285-4.123-2.555-1.217-.602-3.644-1.082-5.807-.243-.189-.386-.575-1.021-1.318-2.21-2.055-3.3-5.496-8.83-6.409-13.365-1.19-5.902.102-19.598.825-20.747 1.102.318 6.07 6.99 8.01 12.107l.284.75c.798 2.096 2.001 5.253 2.752 7.39l.182.716c1.508 5.881 1.866 7.274 3.752 7.889l3.076 1.4c1.399.919 1.778 1.527 2.42 2.122.581.534.933 1.142 1.399 1.697 2.718 3.319 3.894 6.192 3.813 9.328-.041 1.467.784 4.503 1.332 6.51l.013.04c.108.393.203.744.277 1.022-.29.547-3.109 3.102-4.157 3.67-2.055 1.13-4.09 1.21-6.99.298-2.832-1.596-6.807-4.26-9.66-7.855-2.035-2.556-2.724-4.617-2.258-6.693.453-2 1.379-2.738 2.096-3.116l.02.007Zm12.783-11.959c-.149 1.17-.568 2.393-.865 3.299-.129.385-.223.67-.284.892l-2.758-1.25c-1.589-.514-1.893-1.71-3.367-7.456l-.175-.69c.047-.987.284-5.868.426-6.943.27-2.034 1.304-5.408 1.703-6.043.494.406 1.879 2.893 2.907 5.225 1.223 2.792 2.832 9.863 2.427 12.973l-.014-.007Z" data-color="1"></path>
            <path fill="#F5F0EE" d="m65.155 138.674-1.014-2.305h-3.184l-1.054 2.305H58.78l3.218-7.077h1.135l3.17 7.077H65.15h.006Zm-2.602-5.82-1.122 2.467h2.237l-1.122-2.467h.007Z" data-color="1"></path>
            <path fill="#F5F0EE" d="M73.504 138.843c-2.184 0-3.988-1.46-3.988-3.731 0-2.143 1.663-3.691 3.778-3.691 1.312 0 2.488.547 3.421 1.453l-.77.656c-.758-.635-1.576-1.075-2.596-1.075-1.555 0-2.82 1.075-2.82 2.677 0 1.717 1.447 2.67 3.043 2.67 1.108 0 1.804-.371 2.575-1.135l.683.743c-.852 1.007-2.021 1.44-3.326 1.44v-.007Z" data-color="1"></path>
            <path fill="#F5F0EE" d="M86.693 137.789c-.609.797-1.738 1.027-2.69 1.027-.954 0-2.09-.311-2.671-1.169-.358-.534-.399-1.034-.399-1.663v-4.394h1.028v4.394c0 .493.027.899.398 1.271.447.446 1.204.52 1.805.52 1.305 0 2.015-.399 2.015-1.791v-4.394h1.014v4.394c0 .723-.047 1.217-.5 1.805Z" data-color="1"></path>
            <path fill="#F5F0EE" d="M96.306 135.659H93.23v3.008h-1.034v-7.084h4.11c1.25 0 2.068.75 2.068 2.021s-.824 2.049-2.068 2.049v.006Zm0-3.035H93.23v1.994h3.076c.662 0 1.04-.324 1.04-1.007 0-.683-.357-.987-1.04-.987Z" data-color="1"></path>
            <path fill="#F5F0EE" d="M108.278 137.789c-.609.797-1.738 1.027-2.691 1.027-.953 0-2.089-.311-2.67-1.169-.358-.534-.399-1.034-.399-1.663v-4.394h1.028v4.394c0 .493.027.899.398 1.271.447.446 1.204.52 1.805.52 1.305 0 2.015-.399 2.015-1.791v-4.394h1.014v4.394c0 .723-.048 1.217-.5 1.805Z" data-color="1"></path>
            <path fill="#F5F0EE" d="m119.046 138.674-4.272-5.394v5.394h-1.014v-7.084h1.007l4.266 5.415v-5.415h1.041v7.084h-1.028Z" data-color="1"></path>
            <path fill="#F5F0EE" d="M128.436 138.843c-2.184 0-3.989-1.46-3.989-3.731 0-2.143 1.663-3.691 3.779-3.691 1.312 0 2.488.547 3.421 1.453l-.771.656c-.757-.635-1.575-1.075-2.596-1.075-1.555 0-2.819 1.075-2.819 2.677 0 1.717 1.447 2.67 3.042 2.67 1.109 0 1.805-.371 2.576-1.135l.683.743c-.852 1.007-2.022 1.44-3.326 1.44v-.007Z" data-color="1"></path>
            <path fill="#F5F0EE" d="M138.542 132.624v6.05h-1.007v-6.05h-2.529v-1.034h6.03v1.034h-2.494Z" data-color="1"></path>
            <path fill="#F5F0EE" d="M150.919 137.789c-.608.797-1.737 1.027-2.69 1.027-.953 0-2.089-.311-2.67-1.169-.359-.534-.399-1.034-.399-1.663v-4.394h1.027v4.394c0 .493.027.899.399 1.271.446.446 1.203.52 1.805.52 1.305 0 2.014-.399 2.014-1.791v-4.394h1.014v4.394c0 .723-.047 1.217-.5 1.805Z" data-color="1"></path>
            <path fill="#F5F0EE" d="m161.161 135.7 1.474 2.974h-1.17l-1.426-2.934h-2.643v2.934h-1.035v-7.084h4.198c1.291 0 2.231.743 2.231 2.089 0 1.075-.608 1.778-1.636 2.021h.007Zm-.602-3.089h-3.163v2.088h3.163c.703 0 1.204-.331 1.204-1.081 0-.751-.534-1.007-1.204-1.007Z" data-color="1"></path>
            <path fill="#F5F0EE" d="M166.934 138.674v-7.084h5.827v1.041h-4.793v1.852h2.413v1.028h-2.413v2.129h4.975v1.034h-6.009Z" data-color="1"></path>
        </g>
        <defs fill="none">
            <clipPath id="2e998d16-116c-43dc-9462-97aa7a831974_comp-lnx8l0u8_r_comp-lnx7gdnl">
                <path transform="translate(.787)" fill="#ffffff" d="M230.158 0v138.844H0V0h230.158z"></path>
            </clipPath>
        </defs>
    </g>
</svg>