<svg preserveAspectRatio="xMidYMid meet" data-bbox="8.391 39.742 147.048 84.345" xmlns="http://www.w3.org/2000/svg" viewBox="0 0 164 164" height="164" width="164" data-type="ugc" role="presentation" aria-hidden="true" aria-label="">
    <g>
        <g clip-path="url(#7a004ec6-d0fb-4b63-abda-fc81144ad765_comp-lnvqj7d5__item-j9plerjk)">
            <path stroke-width=".8" stroke="#6B6563" fill="#6B6563" d="M13.77 113.708c-2.963 0-5.379-2.423-5.379-5.402V45.142c0-2.976 2.415-5.4 5.379-5.4h129.425c2.967 0 5.378 2.424 5.378 5.4l.001 47.923a1.685 1.685 0 0 1-3.368 0V45.143c0-1.12-.901-2.032-2.011-2.032H13.77a2.025 2.025 0 0 0-2.011 2.032v63.164c0 1.123.903 2.035 2.011 2.035h108.782a1.684 1.684 0 0 1 0 3.367H13.77Z" clip-rule="evenodd" fill-rule="evenodd"></path>
            <path stroke-width=".8" stroke="#6B6563" fill="#6B6563" d="M22.735 96.573h39.698V56.878H22.735v39.695Zm39.86 3.367h-40.02a3.21 3.21 0 0 1-3.207-3.206V56.717a3.21 3.21 0 0 1 3.206-3.206h40.02a3.21 3.21 0 0 1 3.207 3.206v40.017a3.21 3.21 0 0 1-3.207 3.206Z" clip-rule="evenodd" fill-rule="evenodd"></path>
            <path stroke-width=".8" stroke="#4F6B69" fill="#4F6B69" d="M42.583 64.311a5.3 5.3 0 0 0-5.291 5.294 5.298 5.298 0 0 0 5.29 5.294 5.298 5.298 0 0 0 5.294-5.294 5.3 5.3 0 0 0-5.293-5.294Zm0 13.955c-4.774 0-8.658-3.885-8.658-8.661s3.884-8.661 8.658-8.661c4.776 0 8.66 3.885 8.66 8.66 0 4.777-3.884 8.662-8.66 8.662Z" clip-rule="evenodd" fill-rule="evenodd"></path>
            <path stroke-width=".8" stroke="#4F6B69" fill="#4F6B69" d="M30.14 89.14h24.892c-.821-6.171-6.106-10.874-12.45-10.874-6.34 0-11.622 4.7-12.443 10.873Zm25.947 3.367H29.081a2.416 2.416 0 0 1-1.74-.745 2.432 2.432 0 0 1-.66-1.783c.445-8.46 7.43-15.08 15.901-15.08 8.475 0 15.46 6.62 15.905 15.074a2.407 2.407 0 0 1-2.4 2.534Zm24.864-18.161a2.38 2.38 0 0 0-2.377 2.377 2.38 2.38 0 0 0 2.377 2.376h50.903a2.38 2.38 0 0 0 2.376-2.376 2.38 2.38 0 0 0-2.377-2.377H80.951Zm50.903 8.12H80.951a5.75 5.75 0 0 1-5.744-5.743 5.75 5.75 0 0 1 5.744-5.744h50.903a5.75 5.75 0 0 1 5.743 5.744 5.75 5.75 0 0 1-5.743 5.743Zm-50.903 9.357a2.379 2.379 0 0 0-2.377 2.377 2.378 2.378 0 0 0 2.377 2.373h30.345a2.38 2.38 0 0 0 2.376-2.376 2.378 2.378 0 0 0-2.377-2.374H80.951Zm30.345 8.118H80.951a5.748 5.748 0 0 1-5.744-5.741 5.749 5.749 0 0 1 5.744-5.744h30.345a5.748 5.748 0 0 1 5.74 5.744 5.746 5.746 0 0 1-5.74 5.74ZM80.951 56.874a2.379 2.379 0 0 0-2.377 2.377 2.378 2.378 0 0 0 2.377 2.373h50.903a2.378 2.378 0 0 0 2.376-2.373 2.378 2.378 0 0 0-2.377-2.377H80.951Zm50.903 8.117H80.951a5.748 5.748 0 0 1-5.744-5.74 5.749 5.749 0 0 1 5.744-5.744h50.903a5.748 5.748 0 0 1 5.743 5.743 5.747 5.747 0 0 1-5.743 5.741Zm5.77 26.831c-7.966 0-14.45 6.48-14.45 14.449.001 7.965 6.484 14.449 14.449 14.449 7.968-.001 14.449-6.484 14.449-14.449 0-7.968-6.481-14.449-14.448-14.449Zm0 32.265c-9.822 0-17.817-7.995-17.817-17.816 0-9.825 7.995-17.816 17.816-17.816 9.825 0 17.816 7.991 17.816 17.816.001 9.821-7.991 17.816-17.815 17.816Z" clip-rule="evenodd" fill-rule="evenodd"></path>
            <path stroke-width=".8" stroke="#6B6563" fill="#6B6563" d="M137.624 116.061a5.744 5.744 0 0 1-5.736-5.738 1.684 1.684 0 0 1 3.367 0 2.373 2.373 0 0 0 2.368 2.371 2.374 2.374 0 0 0 2.371-2.371 2.371 2.371 0 0 0-2.371-2.367 5.744 5.744 0 0 1-5.735-5.738 5.744 5.744 0 0 1 5.735-5.738 5.744 5.744 0 0 1 5.738 5.738 1.684 1.684 0 0 1-3.367 0 2.374 2.374 0 0 0-2.371-2.371 2.372 2.372 0 0 0-2.368 2.371 2.373 2.373 0 0 0 2.368 2.37 5.741 5.741 0 0 1 5.738 5.735 5.744 5.744 0 0 1-5.737 5.738Z" clip-rule="evenodd" fill-rule="evenodd"></path>
            <path stroke-width=".8" stroke="#6B6563" fill="#6B6563" d="M137.624 99.856c-.93 0-1.684-.754-1.684-1.684V95.51c0-.932.754-1.683 1.683-1.683a1.68 1.68 0 0 1 1.684 1.683v2.663c0 .93-.751 1.684-1.683 1.684Zm0 18.862c-.93 0-1.684-.754-1.684-1.683v-2.657a1.684 1.684 0 1 1 3.367 0v2.657c0 .929-.751 1.683-1.683 1.683Z" clip-rule="evenodd" fill-rule="evenodd"></path>
        </g>
        <defs fill="none">
            <clipPath id="7a004ec6-d0fb-4b63-abda-fc81144ad765_comp-lnvqj7d5__item-j9plerjk">
                <path fill="#ffffff" d="M163.839 0v163.839H0V0h163.839z"></path>
            </clipPath>
        </defs>
    </g>
</svg>