<svg preserveAspectRatio="xMidYMid meet" data-bbox="0.001 0 270.558 70.009" xmlns="http://www.w3.org/2000/svg" viewBox="0.001 0 270.558 70.009" height="70" width="271" data-type="color" role="presentation" aria-hidden="true" aria-label=""><defs><style>#comp-lqpnqiaj_r_comp-lqpned32 svg [data-color="1"] {fill: #FFFFFF;}</style></defs>
    <g>
        <g clip-path="url(#3a8f0d6a-ddd8-4ff8-8090-c7c411eb7133_comp-lqpnqiaj_r_comp-lqpned32)">
            <path fill="#F5F0ED" d="m40.326 47.572-.089.264-3.499-1.115a24 24 0 0 0 .45-4.646 24.1 24.1 0 0 0-.722-5.867l3.619-1.091.08.257 2.712-.819.057-.016-.33-1.1-2.712.82-.056.015.08.265-3.603 1.084a23.893 23.893 0 0 0-3.892-7.93l2.664-2.816.2.185 1.951-2.063.04-.04-.835-.786-1.95 2.062-.04.04.201.193-2.6 2.744a23.76 23.76 0 0 0-7.808-6.42l.882-3.619.265.065.69-2.817-1.115-.273-.69 2.817.273.064-.851 3.49a25.184 25.184 0 0 0-3.033-1.22c-.506-2.671-1.26-5.376-1.918-6.86-.578-1.309-2.504-5.514-3.475-5.514h-.048c-.851.137-2.023 5.497-2.159 6.485-.104.794-.257 3.514-.345 5.336-.674-1.837-1.485-3.972-2.143-5.705l-.313-.811c-.778-2.046-2.44-5.08-4.237-7.736C5.128 3.146 2.873 0 1.782 0c-.136 0-.249.072-.353.193C.434 1.46-.634 15.544.466 21.017c.915 4.55 4.31 10.007 6.348 13.265l.184.297c.474.763.899 1.437 1.067 1.782-.858.441-2.038 1.035-2.616 3.595-.505 2.223.209 4.398 2.32 7.062 2.864 3.595 6.82 6.251 9.645 7.84h.008c.025.064.049.129.073.2.329.867 1.027 2.681.722 4.631-.482 3.106-2.159 5.305-2.528 5.762l.024.433a24.063 24.063 0 0 0 8.186-2.343l.89 3.595-.265.065.699 2.808 1.115-.273-.698-2.808-.273.064-.923-3.732a23.917 23.917 0 0 0 8.122-6.981l2.495 2.873-.208.176 1.893 2.183.867-.746-1.894-2.183-.208.184-2.592-2.985a23.78 23.78 0 0 0 3.715-8.482l3.443 1.1-.08.256 2.76.883.353-1.092-2.76-.882-.024.008ZM8.09 37.05l.08-.04c2.078-1.18 4.686-.69 5.93-.072.586.288 3.7 2.27 3.82 2.383l.064-.056.08-.04-.024-.024.225-.281.064-.064c-.184-.185-3.498-2.231-4.028-2.496-1.196-.586-3.555-1.051-5.674-.233-.184-.377-.562-.995-1.284-2.159-2.006-3.226-5.368-8.618-6.26-13.056-1.17-5.778.09-19.164.795-20.279 1.076.313 5.93 6.83 7.825 11.829l.28.73c.779 2.046 1.95 5.136 2.689 7.222l.176.707c1.477 5.745 1.822 7.11 3.668 7.703l3.009 1.373c1.364.898 1.741 1.492 2.367 2.07.57.522.915 1.116 1.365 1.653 2.656 3.242 3.803 6.051 3.723 9.117-.04 1.436.77 4.397 1.3 6.355v.04c.112.386.209.723.281 1.004-.28.537-3.033 3.025-4.06 3.587-2.007 1.1-3.997 1.187-6.83.288-2.768-1.564-6.644-4.164-9.437-7.671-1.982-2.496-2.664-4.51-2.207-6.532.442-1.95 1.348-2.673 2.046-3.042l.017-.016Zm12.486-11.684c-.144 1.14-.553 2.335-.85 3.218-.129.377-.225.658-.281.874l-2.697-1.227c-1.548-.506-1.853-1.67-3.29-7.287l-.176-.674c.048-.963.28-5.738.417-6.781.265-1.99 1.276-5.289 1.661-5.906.482.4 1.838 2.824 2.84 5.103 1.197 2.729 2.77 9.638 2.376 12.672v.008Z" data-color="1"></path>
            <path fill="#F5F0ED" d="m116.506 60.395-.947-2.142h-2.953l-.979 2.142h-1.043l2.993-6.572h1.06l2.945 6.572h-1.076Zm-2.415-5.408-1.043 2.295h2.078l-1.043-2.295h.008Z" data-color="1"></path>
            <path fill="#F5F0ED" d="M124.258 60.548c-2.03 0-3.707-1.356-3.707-3.467 0-1.998 1.541-3.434 3.515-3.434 1.219 0 2.311.513 3.178 1.348l-.715.61c-.706-.594-1.468-.995-2.407-.995-1.445 0-2.624.995-2.624 2.487 0 1.597 1.34 2.48 2.824 2.48 1.036 0 1.678-.345 2.392-1.06l.634.69c-.795.94-1.878 1.34-3.09 1.34Z" data-color="1"></path>
            <path fill="#F5F0ED" d="M136.513 59.569c-.562.738-1.613.955-2.496.955s-1.942-.29-2.48-1.084c-.337-.497-.369-.962-.369-1.54v-4.085h.955V57.9c0 .457.024.834.369 1.18.417.417 1.124.489 1.677.489 1.212 0 1.87-.37 1.87-1.67v-4.084h.947V57.9c0 .674-.04 1.131-.465 1.677l-.008-.008Z" data-color="1"></path>
            <path fill="#F5F0ED" d="M145.444 57.595h-2.857v2.8h-.963v-6.58h3.82c1.163 0 1.926.698 1.926 1.878s-.771 1.902-1.926 1.902Zm0-2.825h-2.857v1.854h2.857c.618 0 .971-.297.971-.94 0-.641-.337-.914-.971-.914Z" data-color="1"></path>
            <path fill="#F5F0ED" d="M156.575 59.569c-.562.738-1.613.955-2.496.955-.882 0-1.942-.29-2.479-1.084-.337-.497-.37-.962-.37-1.54v-4.085h.955V57.9c0 .457.025.834.37 1.18.417.417 1.123.489 1.677.489 1.212 0 1.87-.37 1.87-1.67v-4.084h.947V57.9c0 .674-.041 1.131-.466 1.677l-.008-.008Z" data-color="1"></path>
            <path fill="#F5F0ED" d="m166.581 60.395-3.972-5.015v5.015h-.947v-6.58h.939l3.964 5.032v-5.032h.971v6.58h-.955Z" data-color="1"></path>
            <path fill="#F5F0ED" d="M175.305 60.548c-2.03 0-3.707-1.356-3.707-3.467 0-1.998 1.54-3.434 3.515-3.434 1.219 0 2.311.513 3.177 1.348l-.714.61c-.706-.594-1.468-.995-2.407-.995-1.445 0-2.624.995-2.624 2.487 0 1.597 1.34 2.48 2.824 2.48 1.036 0 1.678-.345 2.392-1.06l.634.69c-.795.94-1.878 1.34-3.09 1.34Z" data-color="1"></path>
            <path fill="#F5F0ED" d="M184.694 54.77v5.617h-.939V54.77h-2.352v-.963h5.602v.963h-2.319.008Z" data-color="1"></path>
            <path fill="#F5F0ED" d="M196.202 59.569c-.562.738-1.613.955-2.496.955-.882 0-1.942-.29-2.479-1.084-.337-.497-.37-.962-.37-1.54v-4.085h.955V57.9c0 .457.024.834.37 1.18.417.417 1.123.489 1.677.489 1.212 0 1.87-.37 1.87-1.67v-4.084h.946V57.9c0 .674-.04 1.131-.465 1.677l-.008-.008Z" data-color="1"></path>
            <path fill="#F5F0ED" d="m205.711 57.635 1.364 2.76h-1.083l-1.324-2.728h-2.456v2.728h-.963v-6.58h3.9c1.204 0 2.071.69 2.071 1.942 0 .995-.562 1.653-1.517 1.878h.008Zm-.554-2.865h-2.937v1.942h2.937c.65 0 1.124-.313 1.124-1.003s-.498-.939-1.124-.939Z" data-color="1"></path>
            <path fill="#F5F0ED" d="M211.08 60.395v-6.58h5.417v.971h-4.454v1.717h2.239v.955h-2.239v1.974h4.622v.963h-5.585Z" data-color="1"></path>
            <path fill="#F5F0ED" d="M59.537 16.668 69.2 35.83l8.65-19.163h1.782v21.466h-2.543V20.038l-8.154 18.096h-1.412l-9.044-18v18h-.706V18.786l-1.076-2.118h2.85-.009Z" data-color="1"></path>
            <path fill="#F5F0ED" d="M95.568 16.234h.25a12.15 12.15 0 0 1 4.413.875c1.388.562 2.608 1.332 3.651 2.32a10.814 10.814 0 0 1 2.472 3.498c.602 1.348.907 2.841.907 4.478 0 1.637-.305 3.106-.907 4.462a10.848 10.848 0 0 1-2.472 3.515 11.688 11.688 0 0 1-3.651 2.311c-1.388.562-2.865.85-4.414.875h-.249a12.152 12.152 0 0 1-4.413-.875 11.689 11.689 0 0 1-3.652-2.311 10.945 10.945 0 0 1-2.487-3.515c-.61-1.356-.923-2.849-.923-4.462 0-1.613.305-3.13.923-4.478a11.156 11.156 0 0 1 2.487-3.499 11.76 11.76 0 0 1 3.652-2.319 12.182 12.182 0 0 1 4.413-.875Zm-.272 21.62c1.468 0 2.784-.338 3.94-1.012a9.462 9.462 0 0 0 2.913-2.64 12.21 12.21 0 0 0 1.797-3.651c.41-1.348.61-2.688.61-4.02a11.04 11.04 0 0 0-.586-3.652 9.395 9.395 0 0 0-1.685-3.082 8.133 8.133 0 0 0-2.68-2.118c-1.051-.522-2.255-.779-3.603-.779-1.493 0-2.809.338-3.94 1.012a9.374 9.374 0 0 0-2.865 2.64 12.366 12.366 0 0 0-1.782 3.651 13.775 13.775 0 0 0-.61 4.02c0 1.333.193 2.48.586 3.636a9.686 9.686 0 0 0 1.67 3.065 8.162 8.162 0 0 0 2.663 2.135c1.052.53 2.247.794 3.572.794Z" data-color="1"></path>
            <path fill="#F5F0ED" d="M121.714 16.234h.249c1.556.024 3.025.313 4.413.875a11.567 11.567 0 0 1 3.652 2.32c1.043.978 1.861 2.142 2.471 3.498.602 1.348.907 2.841.907 4.478 0 1.637-.305 3.106-.907 4.462a10.845 10.845 0 0 1-2.471 3.515 11.693 11.693 0 0 1-3.652 2.311c-1.388.562-2.865.85-4.413.875h-.249a12.156 12.156 0 0 1-4.414-.875 11.688 11.688 0 0 1-3.651-2.311 10.963 10.963 0 0 1-2.488-3.515c-.61-1.356-.923-2.849-.923-4.462 0-1.613.305-3.13.923-4.478a11.161 11.161 0 0 1 2.488-3.499 11.76 11.76 0 0 1 3.651-2.319 12.186 12.186 0 0 1 4.414-.875Zm-.273 21.62c1.469 0 2.785-.338 3.94-1.012a9.441 9.441 0 0 0 2.913-2.64 12.189 12.189 0 0 0 1.798-3.651c.409-1.348.61-2.688.61-4.02 0-1.333-.193-2.488-.586-3.652a9.413 9.413 0 0 0-1.685-3.082 8.137 8.137 0 0 0-2.681-2.118c-1.051-.522-2.255-.779-3.603-.779-1.492 0-2.808.338-3.94 1.012a9.387 9.387 0 0 0-2.865 2.64 12.367 12.367 0 0 0-1.781 3.651 13.752 13.752 0 0 0-.61 4.02c0 1.333.192 2.48.586 3.636a9.668 9.668 0 0 0 1.669 3.065 8.162 8.162 0 0 0 2.664 2.135c1.051.53 2.247.794 3.571.794Z" data-color="1"></path>
            <path fill="#F5F0ED" d="M136.608 16.668h3.034l12.021 17.847V16.668h.706v21.466h-1.316l-12.607-18.738v18.738h-.674V18.385l-1.164-1.717Z" data-color="1"></path>
            <path fill="#F5F0ED" d="M166.477 38.134V16.668h3.835c1.678 0 3.106.192 4.278.57 1.171.377 2.134.898 2.865 1.548.738.658 1.276 1.413 1.613 2.287a7.54 7.54 0 0 1 .505 2.745c0 1.428-.353 2.664-1.059 3.707-.706 1.044-1.709 1.87-3.017 2.488l4.566 8.13h-2.729l-4.229-7.456c-.449.08-.899.137-1.332.169a17.92 17.92 0 0 1-1.3.048h-1.445v7.238h-2.543l-.008-.008Zm2.543-7.912h.337c1.124 0 2.143-.129 3.066-.385.923-.257 1.709-.65 2.375-1.196.666-.538 1.172-1.228 1.533-2.07.361-.835.538-1.838.538-3.002 0-.778-.121-1.54-.369-2.287a5.226 5.226 0 0 0-1.196-1.99c-.554-.578-1.268-1.051-2.143-1.413-.882-.36-1.966-.537-3.25-.537h-.891v12.88Z" data-color="1"></path>
            <path fill="#F5F0ED" d="m183.112 38.134 7.271-18.272-1.284-3.186h2.728l8.739 21.466h-2.728l-1.749-4.293h-10.521l-1.685 4.293h-.771v-.008Zm12.696-4.967-5.032-12.39-4.935 12.39h9.967Z" data-color="1"></path>
            <path fill="#F5F0ED" d="M205.479 38.134V16.668h4.847c1.267 0 2.407.096 3.418.289 1.011.192 1.87.49 2.576.89.706.402 1.244.907 1.613 1.533.369.626.554 1.372.554 2.255 0 2.103-1.035 3.611-3.098 4.51l-.826.37c1.637.409 2.913 1.075 3.836 1.99.922.922 1.388 2.062 1.412 3.434 0 .963-.201 1.822-.602 2.592-.401.77-.971 1.413-1.717 1.95-.747.53-1.661.94-2.745 1.228-1.083.289-2.303.433-3.651.433h-5.609l-.008-.008Zm2.543-20.728v9.012h1.316c.923 0 1.782-.08 2.577-.233a6.266 6.266 0 0 0 2.086-.778 4.125 4.125 0 0 0 1.412-1.469c.345-.61.522-1.38.522-2.303v-.064c0-1.284-.53-2.303-1.581-3.05-1.051-.746-2.568-1.123-4.55-1.123h-1.782v.008Zm0 9.694v10.304h2.36c.874 0 1.717-.088 2.512-.273.794-.184 1.5-.481 2.102-.89a4.45 4.45 0 0 0 1.445-1.63c.361-.674.537-1.516.537-2.511 0-1.533-.529-2.753-1.597-3.652-1.059-.899-2.487-1.348-4.261-1.348h-3.098Z" data-color="1"></path>
            <path fill="#F5F0ED" d="M226.238 38.134V16.668h4.847c1.268 0 2.408.096 3.419.289 1.011.192 1.87.49 2.576.89.706.402 1.244.907 1.613 1.533.369.626.554 1.372.554 2.255 0 2.103-1.036 3.611-3.098 4.51l-.827.37c1.638.409 2.913 1.075 3.836 1.99.923.922 1.389 2.062 1.413 3.434 0 .963-.201 1.822-.602 2.592-.401.77-.971 1.413-1.717 1.95-.747.53-1.662.94-2.745 1.228-1.083.289-2.303.433-3.651.433h-5.61l-.008-.008Zm2.544-20.728v9.012h1.316c.923 0 1.782-.08 2.576-.233a6.263 6.263 0 0 0 2.087-.778 4.125 4.125 0 0 0 1.412-1.469c.345-.61.522-1.38.522-2.303v-.064c0-1.284-.53-2.303-1.581-3.05-1.051-.746-2.568-1.123-4.55-1.123h-1.782v.008Zm0 9.694v10.304h2.359c.875 0 1.718-.088 2.512-.273.795-.184 1.501-.481 2.103-.89a4.439 4.439 0 0 0 1.444-1.63c.361-.674.538-1.516.538-2.511 0-1.533-.53-2.753-1.597-3.652-1.059-.899-2.488-1.348-4.261-1.348h-3.098Z" data-color="1"></path>
            <path fill="#F5F0ED" d="M246.982 16.668h2.512v21.466h-2.512V16.668Z" data-color="1"></path>
            <path fill="#F5F0ED" d="M270.559 16.668v.674h-6.933v20.792h-2.512V17.342h-6.933v-.674h16.378Z" data-color="1"></path>
        </g>
        <defs fill="none">
            <clipPath id="3a8f0d6a-ddd8-4ff8-8090-c7c411eb7133_comp-lqpnqiaj_r_comp-lqpned32">
                <path fill="#ffffff" d="M270.56 0v70.009H0V0h270.56z"></path>
            </clipPath>
        </defs>
    </g>
</svg>