<svg preserveAspectRatio="xMidYMid meet" data-bbox="7.579 0.421 67.426 81.92" xmlns="http://www.w3.org/2000/svg" viewBox="7.579 0.421 67.426 81.92" height="83" width="83" data-type="color" role="presentation" aria-hidden="true" aria-label="">
    <g>
        <g clip-path="url(#f6985a3d-1037-4f60-9131-0328af815e85_comp-lnvqj7d5__item-j9ples3e)">
            <path fill="#6B6563" d="M74.046 82.34H8.539a.963.963 0 0 1-.96-.959v-80c0-.528.432-.96.96-.96h52.597c.288 0 .528.096.72.288l12.861 12.91c.192.144.288.384.288.672v67.09c0 .528-.431.96-.96.96ZM9.499 80.422h63.587V14.674L60.752 2.341H9.5v78.08Z" clip-rule="evenodd" fill-rule="evenodd" data-color="1"></path>
            <path fill="#6B6563" d="M74.046 15.25h-12.91c-.528 0-.911-.432-.911-.96V1.381c0-1.248 1.871-1.248 1.871 0v11.95h11.95c1.248 0 1.248 1.92 0 1.92Z" clip-rule="evenodd" fill-rule="evenodd" data-color="1"></path>
            <path fill="#4F6B69" d="M41.269 35.838c-7.679 0-13.917-6.239-13.917-13.917S33.59 7.956 41.269 7.956c7.678 0 13.965 6.286 13.965 13.965 0 7.678-6.287 13.917-13.965 13.917Zm0-25.963c-6.623 0-11.998 5.423-11.998 12.046 0 6.623 5.375 11.998 11.998 11.998 6.622 0 12.045-5.375 12.045-11.998 0-6.623-5.423-12.046-12.045-12.046Z" clip-rule="evenodd" fill-rule="evenodd" data-color="2"></path>
            <path fill="#4F6B69" d="M41.797 31.903c-2.448 0 1.152-4.175-1.392-9.31a1.331 1.331 0 0 1 0-.864c2.64-5.327 8.734-6.574 9.022-6.622.48-.096.912.144 1.104.623.048.192 1.728 5.28-.624 9.982-1.44 2.832-4.08 4.943-7.774 6.143-.096 0-.24.048-.336.048Zm.576-9.694c.911 2.112 1.151 4.511.72 7.199 5.566-2.448 6.862-7.439 5.806-12.19-1.535.48-4.799 1.872-6.526 4.991Z" clip-rule="evenodd" fill-rule="evenodd" data-color="2"></path>
            <path fill="#4F6B69" d="M42.228 29.791c-.72 0-1.2-.815-.816-1.44l7.343-12.813c.624-1.103 2.303-.144 1.68.96l-7.391 12.814c-.192.287-.48.48-.816.48Z" clip-rule="evenodd" fill-rule="evenodd" data-color="2"></path>
            <path fill="#4F6B69" d="M41.749 32.191c-.096 0-.192 0-.24-.048-4.175-1.104-7.103-3.215-8.734-6.19-2.544-4.752-.768-10.03-.72-10.223.144-.48.623-.72 1.103-.623.24.048 5.615 1.151 8.495 5.71 1.775 2.928 2.111 6.48 1.008 10.654a.925.925 0 0 1-.912.72Zm-8.11-14.973c-1.2 5.519.815 10.654 7.39 12.814 1.44-6.815-1.968-11.086-7.39-12.814Z" clip-rule="evenodd" fill-rule="evenodd" data-color="2"></path>
            <path fill="#4F6B69" d="M41.748 32.191c-.335 0-.671-.192-.815-.48L32.15 16.498c-.623-1.104 1.008-2.063 1.632-.96l8.782 15.213c.384.624-.096 1.44-.816 1.44Z" clip-rule="evenodd" fill-rule="evenodd" data-color="2"></path>
            <path fill="#6B6563" d="M67.183 46.156H32.39c-1.248 0-1.248-1.92 0-1.92h34.793c1.248 0 1.248 1.92 0 1.92Z" clip-rule="evenodd" fill-rule="evenodd" data-color="1"></path>
            <path fill="#4F6B69" d="M21.592 50.571h-4.51a3.113 3.113 0 0 1-3.12-3.12v-4.51c0-1.68 1.392-3.072 3.12-3.072h4.51c1.68 0 3.072 1.392 3.072 3.072v4.51c0 1.728-1.392 3.12-3.072 3.12Zm-4.51-8.782c-.673 0-1.2.528-1.2 1.152 0 6.622-.912 5.71 5.71 5.71.624 0 1.152-.527 1.152-1.2 0-6.622.96-5.662-5.663-5.662Z" clip-rule="evenodd" fill-rule="evenodd" data-color="2"></path>
            <path fill="#6B6563" d="M67.183 58.298H32.39c-1.248 0-1.248-1.92 0-1.92h34.793c1.248 0 1.248 1.92 0 1.92Z" clip-rule="evenodd" fill-rule="evenodd" data-color="1"></path>
            <path fill="#4F6B69" d="M21.592 62.665h-4.51a3.113 3.113 0 0 1-3.12-3.12v-4.462a3.113 3.113 0 0 1 3.12-3.12h4.51c1.68 0 3.072 1.392 3.072 3.12v4.463c0 1.727-1.392 3.119-3.072 3.119Zm-4.51-8.782c-.673 0-1.2.528-1.2 1.2 0 6.574-.912 5.662 5.71 5.662.624 0 1.152-.527 1.152-1.2 0-6.574.96-5.662-5.663-5.662Z" clip-rule="evenodd" fill-rule="evenodd" data-color="2"></path>
            <path fill="#6B6563" d="M67.183 70.391H32.39c-1.248 0-1.248-1.92 0-1.92h34.793c1.248 0 1.248 1.92 0 1.92Z" clip-rule="evenodd" fill-rule="evenodd" data-color="1"></path>
            <path fill="#4F6B69" d="M21.592 74.758h-4.51c-1.728 0-3.12-1.391-3.12-3.07v-4.512a3.113 3.113 0 0 1 3.12-3.12h4.51c1.68 0 3.072 1.392 3.072 3.12v4.511c0 1.68-1.392 3.072-3.072 3.072Zm-4.51-8.782c-.673 0-1.2.528-1.2 1.2 0 6.623-.912 5.663 5.71 5.663.624 0 1.152-.528 1.152-1.152 0-6.623.96-5.71-5.663-5.71Z" clip-rule="evenodd" fill-rule="evenodd" data-color="2"></path>
        </g>
        <defs fill="none">
            <clipPath id="f6985a3d-1037-4f60-9131-0328af815e85_comp-lnvqj7d5__item-j9ples3e">
                <path transform="translate(.333 .421)" fill="#ffffff" d="M81.919 0v81.919H0V0h81.919z"></path>
            </clipPath>
        </defs>
    </g>
</svg>