<svg preserveAspectRatio="xMidYMid meet" data-bbox="0 0 1000 1000" xmlns="http://www.w3.org/2000/svg" viewBox="0 0 1000 1000" height="1000" width="1000" data-type="ugc" role="presentation" aria-hidden="true" aria-label="">
    <g>
        <path fill="url(#f98ffb1e-eb7e-44ce-9dfa-2d06f20629f5_comp-lr7mad4d_r_comp-lr7ma93f7)" d="M1000 500c0 276.142-223.858 500-500 500S0 776.142 0 500 223.858 0 500 0s500 223.858 500 500z"></path>
        <path fill="#3C5657" d="m661.616 590.214-.633 1.902-25.118-8.008c2.132-10.83 3.226-21.949 3.226-33.355 0-14.46-1.785-28.574-5.184-42.112l25.981-7.835.576 1.844 19.472-5.876.403-.115-2.362-7.893-19.472 5.876-.403.116.576 1.901-25.866 7.777c-5.761-20.739-15.266-39.98-27.94-56.917l19.126-20.221 1.44 1.325 13.999-14.805.288-.288-5.991-5.646-13.999 14.806-.288.288 1.44 1.382-18.665 19.702a170.548 170.548 0 0 0-56.053-46.086l6.337-25.981 1.901.46 4.955-20.22-8.008-1.959-4.954 20.221 1.958.461-6.106 25.059a180.82 180.82 0 0 0-21.776-8.756c-3.629-19.184-9.044-38.598-13.768-49.255-4.148-9.39-17.974-39.577-24.945-39.577h-.345c-6.107.979-14.518 39.461-15.497 46.547-.749 5.703-1.843 25.233-2.477 38.31-4.839-13.193-10.658-28.516-15.382-40.96l-2.246-5.818c-5.588-14.69-17.513-36.466-30.417-55.535-6.453-9.678-22.64-32.26-30.475-32.26-.979 0-1.786.518-2.535 1.382-7.143 9.103-14.805 110.205-6.913 149.494 6.567 32.664 30.936 71.837 45.568 95.226l1.325 2.132c3.399 5.473 6.452 10.312 7.662 12.789-6.164 3.168-14.632 7.431-18.78 25.808-3.63 15.958 1.498 31.57 16.649 50.696 20.566 25.808 48.967 44.876 69.245 56.283h.057c.173.461.346.921.519 1.44 2.362 6.222 7.374 19.241 5.185 33.24-3.457 22.294-15.497 38.079-18.147 41.363l.173 3.11c21.027-2.131 40.786-8.007 58.76-16.821l6.395 25.808-1.901.461 5.012 20.163 8.007-1.959-5.012-20.162-1.959.46-6.625-26.787a171.705 171.705 0 0 0 58.3-50.12l17.916 20.624-1.498 1.268 13.596 15.669 6.222-5.358-13.596-15.669-1.498 1.325-18.607-21.43a170.704 170.704 0 0 0 26.672-60.892l24.714 7.892-.576 1.844 19.818 6.337 2.534-7.835-19.817-6.337-.173.057ZM430.204 514.69l.576-.288c14.921-8.468 33.643-4.954 42.572-.518 4.206 2.073 26.558 16.303 27.422 17.109l.461-.403.576-.288-.173-.173 1.613-2.016.461-.461c-1.325-1.325-25.117-16.015-28.919-17.916-8.584-4.206-25.521-7.547-40.729-1.671-1.325-2.707-4.033-7.143-9.218-15.496-14.402-23.159-38.54-61.872-44.934-93.729-8.411-41.478.634-137.569 5.703-145.576 7.72 2.247 42.573 49.025 56.168 84.914l2.016 5.243c5.588 14.69 13.999 36.869 19.299 51.847l1.268 5.07c10.6 41.247 13.077 51.041 26.327 55.304l21.603 9.851c9.793 6.452 12.501 10.715 16.994 14.863 4.09 3.744 6.567 8.007 9.793 11.867 19.069 23.274 27.307 43.437 26.731 65.443-.288 10.312 5.53 31.569 9.332 45.626v.288c.807 2.765 1.498 5.184 2.017 7.201-2.017 3.859-21.776 21.718-29.15 25.75-14.402 7.893-28.689 8.527-49.025 2.074-19.875-11.233-47.699-29.898-67.747-55.073-14.229-17.916-19.126-32.376-15.842-46.893 3.168-13.999 9.678-19.184 14.69-21.834l.115-.115Zm89.638-83.877c-1.037 8.18-3.975 16.763-6.106 23.1-.922 2.708-1.613 4.724-2.016 6.28l-19.357-8.814c-11.118-3.63-13.307-11.983-23.619-52.309l-1.268-4.839c.346-6.913 2.017-41.19 2.996-48.679 1.901-14.287 9.16-37.964 11.925-42.399 3.456 2.88 13.192 20.278 20.393 36.639 8.584 19.586 19.875 69.187 17.052 90.963v.058Z"></path>
        <defs fill="none">
            <linearGradient gradientUnits="userSpaceOnUse" y2="1000" x2="500" y1="0" x1="500" id="f98ffb1e-eb7e-44ce-9dfa-2d06f20629f5_comp-lr7mad4d_r_comp-lr7ma93f7">
                <stop stop-color="#F1EDEB"></stop>
                <stop stop-color="#E3DED9" offset="1"></stop>
            </linearGradient>
        </defs>
    </g>
</svg>