<svg preserveAspectRatio="xMidYMid meet" data-bbox="-6.47 0.578 604.378 489.822" xmlns="http://www.w3.org/2000/svg" viewBox="0 0 452 491" height="491" width="452" data-type="ugc" role="presentation" aria-hidden="true" aria-label="">
    <g>
        <g clip-path="url(#3330621f-0f00-4c3b-a926-7a165347aeda_comp-lqcsg516__b11a7f75-2624-4cf2-8f17-6f8feaf26808)">
            <path fill="#ffffff" d="M451.422 223.513v43.952c0 123.124-99.811 222.935-222.935 222.935h-4.691C100.672 490.4.861 390.589.861 267.465v-43.952C.861 100.389 100.672.578 223.796.578h4.691c123.124 0 222.935 99.811 222.935 222.935z"></path>
            <g clip-path="url(#15061d10-7003-4736-9ed7-335e458a5e2c_comp-lqcsg516__b11a7f75-2624-4cf2-8f17-6f8feaf26808)">
                <path stroke-linejoin="round" stroke-linecap="round" stroke="#3C5657" d="M597.908 419.812H340.492c-8.958 0-16.924-5.578-20.119-13.947-5.597-14.664-19.448-27.613-35.32-21.834-15.448 5.625-14.973 21.313-22.242 14.333-10.396-9.982 10.154-9.257 11.604-21.587 2.68-22.774-5.319-25.143-11.604-22.185-6.286 2.958 8.257 13.312 4.352 21.701-6.528 14.022-11.605 5.077-20.309 12.088-6.478 5.219-1.29 57.877 34.089 61.286 30.099 2.902 40.629-24.312 51.928-35.087 14.799-14.112 25.195-38.53 29.546-55.937 3.509-14.035 7.736-33.121-4.523-65.517-12.259-32.396-35.61-43.034-53.984-43.034-18.374 0-36.099 15.717-36.385 36.023-.363 25.748 16.561 62.133 21.396 62.136 4.835.002-7.495-30.465-4.352-57.542 3.429-29.549 17.627-30.456 36.264-21.758 18.132 8.461 29.736 33.605 32.396 58.022 2.589 23.783 0 41.57-15.957 60.427-15.956 18.857-16.439 9.67-6.285 0s14.506-30.207 12.693-55.592c-2.252-31.521-30.766-63.426-42.672-59.836-7.617 2.297 5.802 24.419-4.188 24.339-13.61-.107-3.151 20.646 18.21 33.08 28.702 16.707 6.045 51.979-8.958 38.937-9.716-8.447-22.819-7.767-36.811-26.934-7.306-10.008-18.997-15.871-31.388-15.871H-6.47" fill="none"></path>
                <path stroke-linejoin="round" stroke-miterlimit="10" stroke="#231F20" d="M267.611 419.929h-50.115s6.241 1.785 15.634 1.737c9.392-.047 10.289-.907 8.463-1.737" fill="none"></path>
            </g>
        </g>
        <defs fill="none">
            <clipPath id="3330621f-0f00-4c3b-a926-7a165347aeda_comp-lqcsg516__b11a7f75-2624-4cf2-8f17-6f8feaf26808">
                <path fill="#ffffff" d="M451.422 223.518v43.942c0 123.126-99.814 222.94-222.94 222.94h-4.681C100.675 490.4.861 390.586.861 267.46v-43.942C.861 100.392 100.675.578 223.801.578h4.681c123.126 0 222.94 99.814 222.94 222.94z"></path>
            </clipPath>
            <clipPath id="15061d10-7003-4736-9ed7-335e458a5e2c_comp-lqcsg516__b11a7f75-2624-4cf2-8f17-6f8feaf26808">
                <path transform="translate(-17.297 193.481)" fill="#ffffff" d="M626.032 0v313.016H0V0h626.032z"></path>
            </clipPath>
        </defs>
    </g>
</svg>