<svg preserveAspectRatio="xMidYMid meet" data-bbox="0 0.578 466.774 489.822" xmlns="http://www.w3.org/2000/svg" viewBox="0 0 451 491" height="491" width="451" data-type="ugc" role="presentation" aria-hidden="true" aria-label="">
    <g>
        <g clip-path="url(#f7a593b6-9a8b-49ca-9f0e-df85c7981909_comp-lqcsg516__0c8c265e-512c-4f57-a539-86f05e3686de)">
            <path fill="#ffffff" d="M450.561 223.513v43.952c0 123.124-99.811 222.935-222.935 222.935h-4.691C99.811 490.4 0 390.589 0 267.465v-43.952C0 100.389 99.811.578 222.935.578h4.691c123.124 0 222.935 99.811 222.935 222.935z"></path>
            <path stroke-linejoin="round" stroke-linecap="round" stroke="#3C5657" d="M31.916 390.359c40.413-.292 195.65-.199 216.076-.367 20.427-.167 20.864-.208 21.348.367.484.576 1.014 1.77 4.198 4.198 3.184 2.427 9.022 6.089 21.213 7.561 12.191 1.473 30.737.756 40.867-2.427 10.129-3.184 11.841-8.836 8.418-10.308-3.423-1.473-11.979 1.234-22.149 2.547-10.169 1.313-21.949 1.234-34.605-1.871-12.656-3.104-26.188-9.233-35.779-19.819-9.592-10.587-15.243-25.631-17.751-36.098-2.507-10.467-1.87-16.357 10.748-14.26 12.617 2.096 37.215 12.18 62.208 13.095 24.994.915 50.384-7.337 64.431-14.09 14.047-6.753 16.754-12.007 15.4-17.539-1.353-5.532-6.765-11.342-14.645-15.362-7.881-4.02-18.228-6.248-27.143-7.363-8.915-1.114-16.397-1.114-18.944 5.691-2.547 6.806-.159 20.417-3.383 27.979-3.224 7.562-12.059 9.074-18.307 6.885-6.249-2.189-9.91-8.079-8.318-14.765 1.591-6.686 8.437-14.169 10.944-24.039 2.508-9.87.677-22.128.836-26.267.159-4.139 2.308-.159 4.696 7.801 2.388 7.959 5.015 19.899 5.851 28.535.835 8.637-.12 13.97-4.458 16.955-4.338 2.984-12.059 3.621-22.486 3.223-10.427-.398-23.561-1.83-30.446-4.616-6.885-2.786-7.522-6.925-.318-9.433 7.203-2.507 22.247-3.383 30.246-6.248 8-2.866 8.955-7.721 7.841-10.905-1.114-3.184-4.298-4.696-14.129-3.86-9.83.835-26.307 4.019-37.41 8.357-11.104 4.338-16.835 9.831-17.193 15.721-.359 5.89 4.656 12.178 16.158 16.715 11.502 4.537 29.491 7.323 45.171 8.517 15.681 1.194 29.053.796 42.386-2.428 13.332-3.223 26.625-9.273 33.51-13.65 6.886-4.378 7.363-7.085 5.214-10.269-2.149-3.183-6.925-6.845-12.377-9.352-5.453-2.508-11.582-3.861-12.617-3.184-1.034.676 3.025 3.383 10.149 7.442 7.124 4.06 17.312 9.472 22.297 17.392 4.984 7.92 4.766 18.347 2.149 28.695-2.617 10.348-7.632 20.616-13.82 29.421-6.188 8.805-13.55 16.148-16.741 19.64-3.188 3.492-2.203 3.134 17.746 2.914 19.949-.218 58.862-.299 97.776-.378" fill="none"></path>
        </g>
        <defs fill="none">
            <clipPath id="f7a593b6-9a8b-49ca-9f0e-df85c7981909_comp-lqcsg516__0c8c265e-512c-4f57-a539-86f05e3686de">
                <path fill="#ffffff" d="M450.561 223.518v43.942c0 123.126-99.814 222.94-222.94 222.94h-4.681C99.814 490.4 0 390.586 0 267.46v-43.942C0 100.392 99.814.578 222.94.578h4.681c123.126 0 222.94 99.814 222.94 222.94z"></path>
            </clipPath>
        </defs>
    </g>
</svg>