<svg data-bbox="2.904 1.997 21.765 21.766" xmlns="http://www.w3.org/2000/svg" viewBox="0 0 27 26" height="26" width="27" data-type="color">
    <g>
        <path fill="#F5F0ED" d="M13.787 1.998c-6 0-10.883 4.881-10.883 10.882 0 6.001 4.882 10.883 10.883 10.883 6 0 10.882-4.882 10.882-10.883 0-6-4.882-10.883-10.882-10.883Zm0 20.691c-5.409 0-9.81-4.4-9.81-9.809 0-5.409 4.401-9.81 9.81-9.81 5.408 0 9.81 4.401 9.81 9.81-.001 5.409-4.402 9.81-9.81 9.81Z" data-color="1"></path>
        <path fill="#F5F0ED" d="M17.142 6.494H14.78l-.016.001c-2.384.008-2.695 1.672-2.696 3.126a.18.18 0 0 0-.005.042v1.021h-1.631a.18.18 0 0 0-.18.18v2.518a.179.179 0 0 0 .18.178h1.63v5.527a.179.179 0 0 0 .18.178h2.38a.179.179 0 0 0 .18-.178V13.56h2.338a.178.178 0 0 0 .18-.18v-2.517a.179.179 0 0 0-.18-.18h-2.518V9.332h2.518a.179.179 0 0 0 .18-.179v-2.48a.177.177 0 0 0-.111-.165.18.18 0 0 0-.069-.014Z" data-color="1"></path>
    </g>
</svg>