<svg data-bbox="3.354 2.454 21.023 21.023" xmlns="http://www.w3.org/2000/svg" viewBox="0 0 27 26" height="26" width="27" data-type="ugc">
    <g>
        <path fill="#F5F0ED" d="M16.758 10.877a.803.803 0 1 0 0-1.607.803.803 0 0 0 0 1.607Z"></path>
        <path fill="#F5F0ED" d="M13.865 10.395a2.57 2.57 0 1 0 0 5.14 2.57 2.57 0 0 0 0-5.14Zm0 3.856a1.286 1.286 0 1 1 0-2.572 1.286 1.286 0 0 1 0 2.572Z"></path>
        <path stroke-miterlimit="10" stroke-width="1.286" stroke="#F5F0ED" d="M17.079 7.824H10.65a1.928 1.928 0 0 0-1.928 1.928v6.428c0 1.064.863 1.928 1.928 1.928h6.428a1.928 1.928 0 0 0 1.928-1.928V9.752a1.928 1.928 0 0 0-1.928-1.928Z" fill="none"></path>
        <path stroke-miterlimit="10" stroke-width=".998" stroke="#F5F0ED" d="M13.865 23.477c5.806 0 10.512-4.706 10.512-10.511 0-5.806-4.706-10.512-10.512-10.512-5.805 0-10.511 4.706-10.511 10.512 0 5.805 4.706 10.511 10.511 10.511Z" fill="none"></path>
    </g>
</svg>