<svg preserveAspectRatio="xMidYMid meet" data-bbox="0.851 0.181 272.213 136.911" xmlns="http://www.w3.org/2000/svg" viewBox="0.851 0.181 272.213 136.911" height="138" width="274" data-type="color" role="presentation" aria-hidden="true" aria-label="">
    <g>
        <path fill="#ffffff" d="M115.278 10.813c.125 0 .252.008.383.014 1.012.082 1.957.697 2.799 1.828 2.986 4.016 4.492 14.141 4.594 22.816 4.546-4.968 7.104-11.993 9.404-18.304 1.112-3.05 2.164-5.932 3.346-8.426-3.218-.907-5.68-2.12-7.903-3.214-3.511-1.731-6.548-3.23-11.231-2.885-2.926.213-5.289 1.978-6.471 4.838-1.503 3.625-.862 8.162 1.594 12.132-.454-2.284-.59-5.271.482-7.11.649-1.111 1.681-1.69 3.003-1.69Zm39.519-2.131c2.875 0 5.127 1.076 6.568 3.145 3.298 4.744 2.223 14.428-2.691 25.013 3.624-2.896 7.027-6.637 10.073-9.984 5.062-5.56 9.429-10.367 13.592-10.43 1.583-.013 3.077.664 4.419 2.05 1.338 1.383 1.801 3.024 1.37 4.883-1.041 4.494-7.289 9.46-13.718 12.503 7.856-1.593 16.678-6.569 19.007-12.69 1.446-3.792.3-7.61-3.395-11.345-4.886-4.934-9.461-5.033-15.799-5.163-5.714-.122-12.824-.27-22.444-4.246-3.547-1.47-6.437-1.672-8.836-.614-2.428 1.065-4.22 3.335-5.763 6.32 3.965.963 9.052 1.4 16.278.631.462-.048.908-.073 1.339-.073ZM77.049 46.308c-.13.884-.343 1.763-.655 2.63-2.33 6.55-1.673 11.378 1.915 13.969 3.292 2.38 8.349 2.346 11.828 1.216-4.08.269-5.986-1.332-6.814-2.46-1.625-2.216-1.447-5.566.47-8.755 2.553-4.233 8.293-8.303 16.925-7.515-4.47-4.132-8.743-2.959-15.524-1.091-2.427.666-5.082 1.4-8.145 2.006Zm135.394 10.95c1.855 2.707 3.097 5.382 2.237 8.083-1.296 4.07-7.362 7.842-19.928 12.251 10.601-2.031 17.441-3.296 32.435-3.42-.196-5.875-5.468-10.76-14.744-16.913Zm-105.299 23.13c7.924 0 15.731 2.7 22.742 5.13 3.525 1.215 6.852 2.368 9.977 3.12 2.305.552 4.756-.624 6.381-3.067 1.914-2.88 2.864-7.89-.088-13.24.754 5.007.156 8.754-1.699 10.245-.786.629-1.738.762-2.612.362-1.426-.654-2.357-2.539-2.43-4.914-.372-11.588 3.417-19.534 8.371-24.318-.337-.986-.822-1.837-1.449-2.55-3.392-3.852-10.291-3.008-15.189-2.035-8.607 1.708-14.727.127-19.197-1.026-4.407-1.14-7.07-1.828-9.319.989-3.45 4.319-9.049 22.278-5.229 29.06 1.14 2.023 2.986 2.842 5.632 2.502a32.21 32.21 0 0 1 4.109-.258Zm15.873 4.97c.023 0 .048 0 .071.006 1.191.176 2.201 1.698 3.086 4.66 1.659 5.554 2.524 14.931 2.785 21.849.085 2.279.238 8.114-.213 12.081a1349.132 1349.132 0 0 1 39.672-8.366c1.041-3.327 1.526-9.145 1.248-15.785-.372-8.884-1.974-16.037-4.076-18.228-4.747-4.94-11.851-9.794-18.995-12.98a.48.48 0 0 1-.258-.589c1.883-5.586 2.462-10.018 1.747-13.246-4.6 4.65-8.06 12.251-7.714 23.233.08 2.406 1.058 3.701 1.875 4.072.547.256 1.103.17 1.611-.238 1.429-1.147 2.419-4.826.916-11.712a.479.479 0 0 1 .853-.386c4.773 6.487 3.747 12.875 1.418 16.375-1.857 2.786-4.69 4.115-7.404 3.463-3.168-.76-6.52-1.919-10.068-3.146-8.119-2.808-17.322-5.996-26.414-4.826-3.037.388-5.255-.612-6.59-2.981-4.067-7.221 1.653-25.546 5.317-30.128 2.637-3.299 5.853-2.469 10.306-1.318 4.381 1.13 10.382 2.68 18.771 1.014 5.127-1.02 12.379-1.884 16.096 2.341a8.124 8.124 0 0 1 1.489 2.48c1.997-1.763 4.155-3.032 6.285-3.846 5.955-2.273 12.036-1.088 15.487 3.021 3.031 3.61 3.315 8.281.726 12.192-2.391 3.625-7.79 6.994-15.516 5.56 7.813 5.048 13.094 3.041 19.648.55 3.8-1.442 8.108-3.08 13.558-3.608 7.229-.7 11.71-2.853 13.318-6.41 2.187-4.823-1.665-10.772-2.898-12.478-5.749-7.96-16.559-8.275-24.616-7.136-9.671 1.372-18.61 5.254-21.874 7.575a.477.477 0 0 1-.726-.555c.502-1.352.511-2.324.023-2.894-1.446-1.686-7.249-.51-12.858.63-6.781 1.377-13.792 2.797-17.532.75a.472.472 0 0 1-.238-.52c.442-2.061.692-4.892.746-8.052a21.38 21.38 0 0 1-.979.822.484.484 0 0 1-.391.096.492.492 0 0 1-.326-.244c-11.004-19.962-29.54-24.32-42.066-21.986-3.12.578-5.073 1.636-5.978 3.231-1.529 2.698-.014 6.768 1.738 11.48 1.65 4.438 3.477 9.341 3.086 14.13 2.907-.592 5.448-1.289 7.779-1.932 7.354-2.024 12.209-3.358 17.438 2.327a.48.48 0 0 1-.422.799c-8.936-1.31-14.815 2.706-17.342 6.9-1.716 2.849-1.915 5.796-.522 7.692 1.512 2.055 4.68 2.621 8.925 1.601a.479.479 0 0 1 .405.845c-3.046 2.363-10.85 3.627-15.68.141-2.765-1.998-5.402-6.232-2.251-15.065.25-.697.43-1.403.553-2.114-1.013.187-2.068.36-3.171.507-3.31.456-6.4.694-9.129.907-6.37.49-10.58.813-10.394 3.225.724 9.474.386 14.159.16 17.256-.185 2.54-.284 3.888.362 5.87 14.361 1.274 18.541 13.514 21.097 20.987.436 1.284.82 2.392 1.197 3.3 1.091 2.615 3.76 2.162 12.047.322 5.575-1.238 13.212-2.933 24.023-4.23 5.436-.653 8.851-1.928 10.141-3.784 1.01-1.454.621-3.067.275-4.483-.037-.15-.068-.298-.102-.437a.479.479 0 0 1 .465-.587Zm5.593 39.608c-.117.754-.264 1.397-.446 1.896 13.171-.694 36.352-5.563 39.153-8.961.259-.317.5-.737.724-1.261a1354.13 1354.13 0 0 0-39.431 8.326ZM54.24 75.271c.29.729.675 1.553 1.171 2.543 2.034 4.072 11.083 24.726 18.147 51.422.984 3.712 1.966 5.56 3.398 6.365 2.13 1.21 5.541.224 11.735-1.564l1.132-.329c9.647-2.777 22.956-6.113 37.927-9.528.809-7.074.105-25.174-2.495-33.883-.55-1.84-1.069-2.837-1.489-3.375.286 1.346.448 2.981-.598 4.486-1.478 2.123-5.017 3.492-10.817 4.189-10.759 1.292-18.374 2.981-23.93 4.214-8.022 1.782-11.686 2.593-13.141-.89-.389-.933-.774-2.055-1.217-3.356-2.447-7.158-6.437-18.837-19.823-20.294Zm25.047 61.821c-1.089 0-2.002-.202-2.805-.655-1.676-.949-2.793-2.964-3.85-6.957-7.045-26.614-16.055-47.186-18.08-51.239-.604-1.204-1.05-2.193-1.367-3.06a25.113 25.113 0 0 0-1.812-.063H1.33a.478.478 0 1 1 0-.957h50.043c.508 0 1 .01 1.486.036-.584-1.992-.477-3.437-.3-5.866.218-3.075.555-7.714-.162-17.117-.258-3.367 4.33-3.718 11.275-4.254 2.714-.207 5.791-.445 9.07-.895a71.18 71.18 0 0 0 3.44-.562c.462-4.67-1.362-9.57-3.004-13.988-1.837-4.937-3.423-9.202-1.673-12.288 1.052-1.854 3.222-3.064 6.633-3.701 6.792-1.261 14.625-.372 21.488 2.445 8.9 3.653 16.069 10.223 21.318 19.526.394-.331.777-.674 1.143-1.031-.008-8.686-1.455-19.283-4.396-23.239-.672-.9-1.381-1.386-2.107-1.442-1.145-.094-1.957.3-2.481 1.201-1.475 2.531-.173 8.097.448 9.012a.483.483 0 0 1-.105.65.483.483 0 0 1-.655-.066c-4.064-4.698-5.428-10.769-3.48-15.468 1.33-3.21 3.99-5.186 7.291-5.43 4.943-.357 8.086 1.188 11.724 2.982 2.303 1.136 4.742 2.34 7.901 3.214 1.659-3.257 3.602-5.756 6.33-6.952 2.649-1.165 5.788-.97 9.591.603 9.452 3.909 16.46 4.056 22.095 4.175 6.313.133 11.304.238 16.457 5.447 3.93 3.97 5.181 8.241 3.616 12.359-2.825 7.416-14.614 13.223-23.434 13.793a.473.473 0 0 1-.499-.377.484.484 0 0 1 .304-.55c7.055-2.545 15.37-8.332 16.508-13.24.351-1.517-.026-2.86-1.126-3.996-1.166-1.205-2.388-1.777-3.713-1.757-3.746.056-7.991 4.721-12.9 10.117-3.514 3.863-7.498 8.244-11.798 11.31a.482.482 0 0 1-.59-.025.49.49 0 0 1-.116-.581c5.405-10.798 6.863-21.178 3.624-25.832-1.463-2.108-3.822-3.004-7.013-2.667-7.43.791-12.719.295-16.811-.722-1.2 2.494-2.263 5.413-3.392 8.513-2.448 6.71-5.184 14.22-10.297 19.353-.02 3.401-.261 6.501-.718 8.82 3.542 1.638 10.451.235 16.568-1.007 6.417-1.303 11.965-2.428 13.777-.314.547.638.714 1.49.51 2.584 3.97-2.394 12.3-5.775 21.202-7.03 8.32-1.18 19.502-.828 25.529 7.518 1.679 2.327 5.328 8.287 2.995 13.436-1.762 3.89-6.506 6.235-14.101 6.971-5.32.513-9.563 2.123-13.306 3.549-7.39 2.805-13.224 5.021-22.628-2.137a.478.478 0 0 1 .428-.84c8.553 2.597 14.464-.835 16.925-4.559 2.343-3.54 2.09-7.776-.661-11.05-3.184-3.791-8.839-4.868-14.412-2.743-2.138.816-4.305 2.12-6.296 3.945.933 3.386.434 8.043-1.491 13.903 7.118 3.24 14.154 8.08 18.895 13.014 2.74 2.851 4.042 11.605 4.348 18.849.216 5.166-.017 11.559-1.146 15.623 15.538-3.015 31.003-5.716 44.666-7.682l.763-.105c7.07-1.012 9.713-1.389 9.586-7.462-.111-5.288 1.009-15.842 2.49-23.525.096-.502.158-.995.187-1.482-15.153.13-21.931 1.431-32.792 3.511-2.042.391-4.158.796-6.531 1.233a.48.48 0 0 1-.551-.354.474.474 0 0 1 .321-.573c16.695-5.251 24.761-9.533 26.147-13.892.857-2.684-.686-5.458-3.635-9.338a.48.48 0 0 1 .028-.615.488.488 0 0 1 .613-.076c10.935 7.04 17.191 12.413 17.378 19.143.514-.005 1.038-.005 1.574-.005h42.897a.48.48 0 0 1 0 .957h-42.897c-.539 0-1.069.003-1.588.006-.031.541-.102 1.1-.207 1.664-1.475 7.629-2.584 18.094-2.476 23.323.145 6.924-3.383 7.425-10.408 8.428l-.76.111c-13.802 1.987-29.44 4.721-45.134 7.773-.309.859-.672 1.571-1.097 2.083-3.262 3.96-28.476 8.862-40.71 9.347a.479.479 0 0 1-.338-.833c.244-.213.446-.853.602-1.825-14.804 3.381-27.963 6.682-37.523 9.437l-1.131.326c-4.356 1.255-7.39 2.134-9.668 2.134Z" data-color="1"></path>
    </g>
</svg>