<svg preserveAspectRatio="xMidYMid meet" data-bbox="0 0.945 558.781 489.822" xmlns="http://www.w3.org/2000/svg" viewBox="0 0 451 491" height="491" width="451" data-type="ugc" role="presentation" aria-hidden="true" aria-label="">
    <g>
        <g clip-path="url(#db96b25c-efd2-4e1e-8cc3-db6ac6c7f7d7_comp-lqcsg516__1f48d401-bed6-4c09-911c-388164a2f0de)">
            <path fill="#ffffff" d="M450.561 223.88v43.952c0 123.124-99.811 222.935-222.935 222.935h-4.691C99.811 490.767 0 390.956 0 267.832V223.88C0 100.756 99.811.945 222.935.945h4.691c123.124 0 222.935 99.811 222.935 222.935z"></path>
            <g clip-path="url(#4f70d608-b1ff-4d26-8c3d-6f9bfa8ac475_comp-lqcsg516__1f48d401-bed6-4c09-911c-388164a2f0de)">
                <path stroke-linejoin="round" stroke-linecap="round" stroke="#3C5657" d="M558.781 362.415h-191.27c-15.233 0-27.074-13.359-25.125-28.466.027-.206.054-.414.083-.622 4.485-32.798-11.198-45.223-41.206-52.614-31.825-7.84-31.958 30.149-14.07 37.386 17.755 7.181 42.506 10.09 35.242 61.975-7.504 53.601-39.664 48.509-46.364 28.677-5.14-15.218 3.752-30.285 23.584-27.604 19.833 2.68 19.587 30.384 13.4 39.664-8.576 12.865-29.459 12.132-38.05 2.334-13.232-15.091-1.095-38.112 4.149-51.78s3.021-27.068-4.824-51.858c-7.261-22.944-5.753-35.009-.269-48.509 3.485-8.576-1.417-43.941 23.584-41.943 16.086 1.286 8.242 29.346 2.01 37.386-6.231 8.04-15.276 11.256-16.482 8.241-1.206-3.015 20.301-5.226 27.537-4.623 7.236.603-13.468 8.442-7.84-5.226 3.132-7.606 6.68-9.411 5.629-20.1-.804-8.174.531-14.689 8.71-14.338 9.38.402 9.507 19.357 1.978 18.588-9.221-.941-10.849-3.167-2.648-2.509 8.811.708-.536 17.689 2.412 24.523 2.144 4.969 6.633 4.69 5.427 3.484-1.206-1.206-5.519-1.368-3.618-15.678.979-7.375 4.051-17.775 12.08-15.983 10.619 2.371 5.608 18.797-1.226 18.797s-9.648-6.231-2.412-3.417 1.943 10.117 2.345 16.951c.363 6.181 1.273 7.973 5.092 9.782 3.819 1.809-4.02-2.412-1.608-7.036 2.412-4.623 9.448 1.408 8.041 2.815-1.408 1.407-9.179-2.882-9.38-8.108-.201-5.226 3.718-13.802 9.564-13.4 5.847.402 9.464 13.467 8.258 18.09-1.206 4.624-9.246 11.056-9.448 14.875-.201 3.819 10.632 13.177 7.628 13.439-5.684.497-4.545-8.951-4.21-13.172.192-2.421 2.01-5.896 3.417-7.303s6.03-6.231 8.442-4.422c2.412 1.809 6.03 9.045 3.015 17.286-3.015 8.241-5.025 12.462-4.623 18.694.402 6.231-12.663 39.53-19.9 49.714-7.236 10.184-10.407 26.283-13.668 41.808-3.454 16.447-11.204 28.834-30.232 28.298H74.378" fill="none"></path>
            </g>
        </g>
        <defs fill="none">
            <clipPath id="db96b25c-efd2-4e1e-8cc3-db6ac6c7f7d7_comp-lqcsg516__1f48d401-bed6-4c09-911c-388164a2f0de">
                <path fill="#ffffff" d="M450.561 223.885v43.942c0 123.126-99.814 222.94-222.94 222.94h-4.681C99.814 490.767 0 390.953 0 267.827v-43.942C0 100.759 99.814.945 222.94.945h4.681c123.126 0 222.94 99.814 222.94 222.94z"></path>
            </clipPath>
            <clipPath id="4f70d608-b1ff-4d26-8c3d-6f9bfa8ac475_comp-lqcsg516__1f48d401-bed6-4c09-911c-388164a2f0de">
                <path transform="translate(55.842 220.481)" fill="#ffffff" d="M521 0v254H0V0h521z"></path>
            </clipPath>
        </defs>
    </g>
</svg>