<svg data-bbox="2.688 2.016 21.964 21.965" xmlns="http://www.w3.org/2000/svg" viewBox="0 0 27 26" height="26" width="27" data-type="color">
    <g>
        <path fill="#F5F0ED" d="M13.67 2.016c-6.056 0-10.982 4.927-10.982 10.982 0 6.056 4.926 10.983 10.982 10.983 6.056 0 10.982-4.927 10.982-10.983 0-6.055-4.927-10.982-10.982-10.982Zm0 20.882c-5.459 0-9.9-4.441-9.9-9.9 0-5.458 4.441-9.899 9.9-9.899 5.458 0 9.9 4.44 9.9 9.9-.001 5.458-4.442 9.899-9.9 9.899Z" data-color="1"></path>
        <path fill="#F5F0ED" d="M8.092 10.671h2.541v6.632H8.092V10.67Z" data-color="1"></path>
        <path fill="#F5F0ED" d="M9.337 9.613c.71 0 1.286-.525 1.286-1.173s-.575-1.174-1.286-1.174c-.71 0-1.286.526-1.286 1.174 0 .648.576 1.173 1.286 1.173Z" data-color="1"></path>
        <path fill="#F5F0ED" d="M17.022 10.521c-.52 0-.962.095-1.324.284-.363.19-.72.505-1.074.946v-1.08h-2.367v6.632h2.541v-3.185c0-.604.096-1.022.288-1.255a.923.923 0 0 1 .749-.35c.279 0 .495.087.65.26.154.172.23.467.23.883v3.647h2.555v-4.215c0-.874-.2-1.52-.597-1.94-.397-.418-.948-.627-1.651-.627Z" data-color="1"></path>
    </g>
</svg>