<svg preserveAspectRatio="xMidYMid meet" data-bbox="52.633 27.539 670.596 692.839" height="1000" viewBox="52.633 27.539 670.596 692.839" width="1000" xmlns="http://www.w3.org/2000/svg" data-type="color" role="presentation" aria-hidden="true" aria-label="">
    <g>
        <path d="M312.324 652.487c.805-7.199 4.484-12.507 11.047-15.921 6.562-3.415 15.383-4.508 26.453-3.282l23.547 2.625-9.406 84.469-24.594-2.734c-9.281-1.043-16.14-3.59-20.578-7.641-4.446-4.055-6.317-9.258-5.61-15.61.575-5.18 2.868-9.304 6.875-12.374 4.024-3 8.649-4.805 13.875-5.407l.032-.234c-6.832-1.219-12.313-4.023-16.438-8.406-4.125-4.375-5.86-9.54-5.203-15.485Zm28.875 63.47 15.094 1.687 4.25-38.172-17.078-1.906c-6.032-.68-10.985.566-14.86 3.734-3.957 3.164-6.25 7.535-6.875 13.11-.633 5.718.75 10.546 4.156 14.484 3.407 3.945 8.512 6.3 15.313 7.062Zm-19.89-64c-.708 6.343.757 11.655 4.39 15.937 3.625 4.28 8.883 6.8 15.766 7.562l19.28 2.156 4.454-39.906c-1.375-.469-3.367-.89-5.984-1.265-3.852-.583-6.395-.942-7.625-1.079-18.72-2.082-28.813 3.446-30.282 16.594Zm0 0" fill="#3d5658" data-color="1"></path>
        <path d="M306.977 658.312c-3.188 9.031-8.516 15.422-15.985 19.172-7.468 3.758-15.347 4.176-23.64 1.25-8.219-2.899-13.957-7.977-17.219-15.235-3.258-7.261-3.285-15.437-.078-24.53 3.187-9.04 8.508-15.446 15.953-19.22 7.438-3.77 15.305-4.191 23.594-1.265 8.219 2.898 13.976 7.98 17.265 15.25 3.293 7.281 3.328 15.472.11 24.578Zm-48.985-17.297c-3.03 8.582-3.53 16.266-1.5 23.047 2.024 6.781 6.043 11.234 12.063 13.36 5.95 2.1 11.773 1.21 17.469-2.673 5.699-3.886 10.039-10.047 13.015-18.484 3.031-8.605 3.543-16.297 1.531-23.078-2.019-6.77-6.039-11.219-12.062-13.344-5.945-2.101-11.773-1.21-17.484 2.672-5.707 3.887-10.051 10.05-13.032 18.5Zm0 0" fill="#3d5658" data-color="1"></path>
        <path d="M245.993 636.226c-5.094 8.093-11.696 13.148-19.813 15.172-8.125 2.03-15.91.703-23.36-3.985-7.374-4.637-11.847-10.86-13.421-18.672-1.582-7.804.195-15.781 5.328-23.937 5.105-8.114 11.703-13.188 19.797-15.219 8.086-2.04 15.844-.719 23.281 3.969 7.387 4.636 11.887 10.867 13.5 18.687 1.606 7.813-.164 15.805-5.312 23.985Zm-43.985-27.657c-4.844 7.696-7.023 15.079-6.547 22.141.48 7.063 3.422 12.29 8.828 15.688 5.336 3.351 11.215 3.765 17.641 1.234 6.418-2.531 12.008-7.586 16.766-15.156 4.855-7.72 7.047-15.106 6.578-22.157-.477-7.062-3.422-12.289-8.828-15.687-5.332-3.352-11.211-3.766-17.64-1.234-6.427 2.53-12.024 7.59-16.798 15.171Zm0 0" fill="#3d5658" data-color="1"></path>
        <path d="m146.579 642.82-6.906-2.906-.344-.328 65.516-68.187 5.39 5.172Zm24.734-51.5-1.515-42.421 6.812-7.078.328.328 1.704 51.812-13.579-.703-15.78-.594c-3.415-.042-7.02 0-10.813.125l-5.22-5.015.157-.172c11.168 1.977 21.82 3.145 31.953 3.5Zm0 0" fill="#3d5658" data-color="1"></path>
        <path d="m61.544 520.594-2.61-4.703c8.055-3.32 19.118-8.895 33.188-16.72l43.063-23.968.406.719-40.938 83.281 32.97-18.344c14.823-8.25 25.39-14.707 31.702-19.375l2.61 4.703c-8.032 3.313-19.086 8.883-33.172 16.72L92.84 562.89l-3.453 7-.313.172-4.61-8.266 38.173-76.938-29.375 16.36c-14.82 8.242-25.395 14.699-31.719 19.375Zm0 0" fill="#3d5658" data-color="1"></path>
        <path d="M103.453 481.6c-9.219 2.593-17.516 1.91-24.89-2.048-7.376-3.945-12.25-10.148-14.626-18.609-2.363-8.394-1.515-16.015 2.547-22.86 4.063-6.843 10.735-11.57 20.016-14.187 9.23-2.594 17.527-1.93 24.89 1.985 7.368 3.918 12.243 10.105 14.625 18.562 2.356 8.399 1.508 16.04-2.546 22.922-4.051 6.875-10.723 11.617-20.016 14.234ZM89.39 431.583c-8.77 2.46-15.343 6.469-19.718 12.031-4.375 5.563-5.696 11.418-3.97 17.563 1.712 6.062 5.794 10.308 12.25 12.734 6.462 2.418 13.997 2.418 22.61 0 8.782-2.469 15.36-6.477 19.735-12.031 4.375-5.551 5.703-11.399 3.984-17.547-1.707-6.07-5.797-10.32-12.266-12.75-6.468-2.426-14.007-2.426-22.625 0Zm0 0" fill="#3d5658" data-color="1"></path>
        <path d="m52.743 342.797-.11-5.844c8 3.274 19.719 7.606 35.156 13l28.11 9.86.015.922-49.625 18.828 50.297 16.89.016.938-62.328 25.594-.156-7.938 50.171-20.578-50.875-17-.015-.812 49.844-19.047-16.36-5.656c-15.113-5.313-26.492-8.364-34.14-9.157Zm0 0" fill="#3d5658" data-color="1"></path>
        <path d="M73.253 272.65c1.324-3.957 3.688-7.54 7.094-10.75 3.398-3.219 7.402-5.195 12.016-5.938 4.617-.75 8.836-.484 12.656.797 6.605 2.211 11.45 6.418 14.531 12.625 3.094 6.211 3.535 12.61 1.328 19.203-2.199 6.555-6.406 11.375-12.625 14.47-6.226 3.093-12.625 3.542-19.187 1.343-3.883-1.3-7.41-3.594-10.578-6.875-3.164-3.29-5.172-7.234-6.016-11.828-.852-4.594-.594-8.942.781-13.047Zm0 0" fill="#3d5658" data-color="1"></path>
        <path d="M166.587 178.886c5.812 4.324 8.539 10.184 8.187 17.578-.344 7.399-3.84 15.563-10.484 24.5l-14.125 19.016-68.235-50.688 14.75-19.86c5.575-7.5 11.235-12.144 16.985-13.937 5.742-1.789 11.172-.785 16.297 3.016 4.187 3.117 6.601 7.184 7.234 12.203.574 4.992-.203 9.887-2.328 14.688l.187.14c4.5-5.281 9.68-8.601 15.532-9.969 5.863-1.363 11.195-.257 16 3.313Zm-69.375-7.031-9.047 12.203 30.828 22.89 10.234-13.796c3.625-4.875 5.047-9.774 4.266-14.703-.738-5.008-3.36-9.188-7.86-12.532-4.624-3.437-9.492-4.676-14.609-3.719-5.125.95-9.726 4.168-13.812 9.657Zm65.312 15.062c-5.117-3.8-10.437-5.207-15.969-4.219-5.53.981-10.359 4.247-14.484 9.797l-11.563 15.578 32.235 23.938c1.082-.945 2.445-2.457 4.094-4.531 2.445-3.04 4.039-5.055 4.78-6.047 11.227-15.125 11.532-26.629.907-34.516Zm0 0" fill="#3d5658" data-color="1"></path>
        <path d="M164.254 171.343c-6.188-7.3-9.02-15.125-8.5-23.469.523-8.351 4.133-15.375 10.828-21.062 6.656-5.633 13.938-8.032 21.844-7.188 7.906.844 14.976 4.946 21.219 12.297 6.195 7.313 9.05 15.133 8.562 23.453-.492 8.324-4.09 15.328-10.797 21.016-6.648 5.648-13.937 8.058-21.875 7.234-7.937-.82-15.031-4.914-21.281-12.281Zm39.625-33.61c-5.887-6.937-12.273-11.238-19.156-12.906-6.875-1.664-12.742-.437-17.61 3.688-4.8 4.074-6.96 9.558-6.484 16.453.48 6.887 3.617 13.742 9.406 20.563 5.899 6.949 12.274 11.261 19.14 12.937 6.876 1.668 12.75.434 17.626-3.703 4.8-4.07 6.96-9.55 6.484-16.438-.48-6.894-3.617-13.757-9.406-20.593Zm0 0" fill="#3d5658" data-color="1"></path>
        <path d="M214.051 129.793c-4.426-8.488-5.468-16.75-3.125-24.781 2.344-8.032 7.414-14.078 15.203-18.141 7.727-4.04 15.36-4.781 22.891-2.219 7.531 2.563 13.531 8.121 18 16.672 4.438 8.492 5.5 16.746 3.188 24.766-2.313 8.011-7.368 14.054-15.157 18.125-7.73 4.031-15.375 4.777-22.937 2.234-7.563-2.55-13.582-8.101-18.063-16.656Zm46.047-24.063c-4.21-8.07-9.484-13.675-15.828-16.812-6.344-3.133-12.352-3.227-18.016-.281-5.582 2.918-8.894 7.789-9.937 14.609-1.04 6.824.512 14.2 4.656 22.125 4.219 8.074 9.492 13.688 15.828 16.844 6.332 3.148 12.332 3.242 18 .281 5.582-2.914 8.899-7.785 9.953-14.61 1.051-6.831-.5-14.218-4.656-22.156Zm0 0" fill="#3d5658" data-color="1"></path>
        <path d="m258.423 40.574 6-4.5.453-.125 25.907 90.938-7.188 2.046Zm32.047 47.313 37.406 20.062 2.688 9.438-.453.125-45.625-24.641 7.468-11.344 8.438-13.344a221.385 221.385 0 0 0 5.36-9.406l6.952-1.984.063.234c-7.336 8.649-13.703 17.258-19.11 25.828Zm0 0" fill="#3d5658" data-color="1"></path>
        <path d="m406.867 28.696 5.375.109c-1.188 8.625-1.946 20.992-2.266 37.094l-1 49.265-.828-.03-51.313-77.298-.765 37.719c-.344 16.96-.09 29.34.766 37.14l-5.375-.109c1.187-8.613 1.94-20.972 2.265-37.078l.828-41.094-4.312-6.515.015-.36 9.47.204 47.218 71.718.687-33.61c.344-16.956.086-29.343-.765-37.155Zm0 0" fill="#3d5658" data-color="1"></path>
        <path d="M419.446 84.526c2.406-9.258 7.164-16.078 14.28-20.453 7.126-4.383 14.942-5.473 23.454-3.266 8.438 2.187 14.586 6.762 18.453 13.719 3.875 6.949 4.598 15.093 2.172 24.437-2.406 9.274-7.156 16.098-14.25 20.485-7.086 4.394-14.883 5.488-23.39 3.28-8.438-2.187-14.61-6.761-18.516-13.718-3.899-6.969-4.633-15.129-2.203-24.484Zm50.28 13.047c2.282-8.813 2.126-16.508-.468-23.094-2.594-6.582-6.984-10.676-13.172-12.281-6.094-1.583-11.82-.192-17.172 4.171-5.343 4.368-9.14 10.883-11.39 19.547-2.293 8.824-2.14 16.524.453 23.094 2.594 6.57 6.984 10.66 13.172 12.266 6.094 1.582 11.816.195 17.172-4.157 5.351-4.351 9.156-10.867 11.406-19.546Zm0 0" fill="#3d5658" data-color="1"></path>
        <path d="m564.878 110.635 5.109 2.86c-6.867 5.25-16.516 13.187-28.953 23.812l-22.656 19.313-.813-.438 8.734-52.36-39.937 34.954-.813-.469 9.282-66.734 6.937 3.86-7.484 53.702 40.312-35.39.719.406-8.656 52.656 13.11-11.297c12.206-10.375 20.577-18.664 25.109-24.875Zm0 0" fill="#3d5658" data-color="1"></path>
        <path d="M615.155 163.71c2.758 3.137 4.672 6.984 5.735 11.547 1.062 4.55.75 9.004-.938 13.36-1.687 4.363-4.047 7.874-7.078 10.53-5.23 4.583-11.308 6.641-18.234 6.172-6.918-.46-12.668-3.296-17.25-8.515-4.555-5.211-6.594-11.281-6.125-18.219.469-6.926 3.3-12.664 8.5-17.219 3.082-2.707 6.836-4.597 11.265-5.672 4.438-1.082 8.852-.832 13.25.75 4.395 1.586 8.02 4.008 10.875 7.266Zm0 0" fill="#3d5658" data-color="1"></path>
        <path d="M649.122 291.558c-6.656 2.851-13.09 2.265-19.296-1.766-6.211-4.031-11.5-11.168-15.875-21.406l-9.329-21.797 78.157-33.422 9.734 22.75c3.676 8.594 4.844 15.82 3.5 21.688-1.344 5.875-4.953 10.066-10.828 12.578-4.805 2.05-9.531 2.082-14.188.093-4.585-2.023-8.421-5.164-11.515-9.421l-.219.093c2.29 6.563 2.55 12.711.781 18.453-1.773 5.75-5.414 9.801-10.922 12.157Zm41.032-56.391-5.969-13.969-35.313 15.11 6.75 15.78c2.383 5.595 5.907 9.29 10.563 11.095 4.695 1.894 9.625 1.738 14.781-.47 5.29-2.26 8.817-5.843 10.578-10.75 1.758-4.905 1.297-10.507-1.39-16.796Zm-45.922 48.828c5.863-2.512 9.765-6.402 11.703-11.672 1.938-5.273 1.547-11.09-1.172-17.453l-7.625-17.828-36.922 15.781c.27 1.414.883 3.36 1.844 5.828 1.395 3.645 2.336 6.036 2.828 7.172 7.395 17.313 17.176 23.367 29.344 18.172Zm0 0" fill="#3d5658" data-color="1"></path>
        <path d="M656.828 293.336c9.426-1.676 17.614-.188 24.563 4.468 6.945 4.657 11.187 11.313 12.719 19.97 1.53 8.581-.063 16.077-4.782 22.483-4.71 6.415-11.812 10.47-21.312 12.157-9.43 1.664-17.621.191-24.578-4.422-6.95-4.617-11.188-11.25-12.72-19.906-1.523-8.586.071-16.102 4.782-22.547 4.707-6.45 11.817-10.516 21.328-12.203Zm9.063 51.156c8.969-1.594 15.906-4.945 20.812-10.047 4.907-5.094 6.797-10.79 5.672-17.078-1.094-6.211-4.742-10.84-10.937-13.89-6.188-3.044-13.688-3.782-22.5-2.22-8.97 1.594-15.907 4.938-20.813 10.032-4.906 5.094-6.797 10.785-5.672 17.078 1.094 6.195 4.735 10.82 10.922 13.875 6.188 3.062 13.692 3.812 22.516 2.25Zm0 0" fill="#3d5658" data-color="1"></path>
        <path d="M667.642 357.29c9.563.445 17.219 3.706 22.969 9.78 5.758 6.07 8.438 13.5 8.031 22.282-.406 8.707-3.617 15.672-9.625 20.89-6.011 5.22-13.836 7.598-23.469 7.141-9.574-.438-17.242-3.68-23-9.719-5.75-6.031-8.421-13.437-8.015-22.219.406-8.71 3.613-15.695 9.625-20.953 6.008-5.25 13.836-7.652 23.484-7.203Zm-2.406 51.89c9.094.426 16.594-1.309 22.5-5.203 5.906-3.899 9.004-9.031 9.297-15.406.289-6.305-2.246-11.626-7.61-15.97-5.367-4.335-12.515-6.71-21.453-7.124-9.105-.418-16.609 1.316-22.515 5.203-5.907 3.894-9.008 9.035-9.313 15.422-.289 6.289 2.242 11.601 7.61 15.937 5.375 4.344 12.535 6.723 21.484 7.14Zm0 0" fill="#3d5658" data-color="1"></path>
        <path d="m722.37 440.555.859 7.453-.125.453-91.61-23.438 1.86-7.234Zm-57.032 3.859-36.156 22.203-9.516-2.438.125-.453 44.25-27 6.063 12.157 7.281 14.03a237.272 237.272 0 0 0 5.406 9.345l-1.797 7.015-.218-.062c-3.774-10.688-8-20.528-12.688-29.516Zm0 0" fill="#3d5658" data-color="1"></path>
        <path d="m657.864 574.765-2.813 4.593c-6.844-5.367-17.14-12.246-30.89-20.64l-42.063-25.672.422-.703 92.64-5.406-32.187-19.657c-14.48-8.843-25.309-14.86-32.484-18.047l2.796-4.578c6.852 5.352 17.157 12.227 30.907 20.625l35.078 21.407 7.797-.438.297.188-4.938 8.078-85.75 4.687 28.703 17.516c14.477 8.844 25.305 14.86 32.485 18.047Zm0 0" fill="#3d5658" data-color="1"></path>
        <path d="M603.287 557.519c6.79 6.738 10.281 14.289 10.469 22.656.195 8.363-2.797 15.664-8.985 21.906-6.148 6.188-13.195 9.196-21.14 9.031-7.957-.156-15.36-3.632-22.203-10.421-6.801-6.762-10.313-14.309-10.532-22.641-.226-8.336 2.75-15.621 8.938-21.86 6.148-6.187 13.215-9.214 21.203-9.078 7.977.133 15.395 3.602 22.25 10.407Zm-36.61 36.86c6.462 6.413 13.184 10.16 20.173 11.233 7 1.07 12.75-.656 17.25-5.187 4.437-4.48 6.117-10.125 5.046-16.938-1.062-6.812-4.773-13.37-11.125-19.671-6.468-6.43-13.199-10.18-20.187-11.25-6.988-1.075-12.734.656-17.234 5.187-4.438 4.469-6.118 10.11-5.047 16.922 1.062 6.82 4.773 13.39 11.125 19.703Zm0 0" fill="#3d5658" data-color="1"></path>
        <path d="m507.472 670.013-5.031 2.969c-1.094-8.575-3.098-20.907-6.016-37l-5.25-29.313.797-.469 40.813 33.907-10.063-52.094.813-.469 52.968 41.64-6.828 4.048-42.61-33.547 10.25 52.672-.702.422-41.125-34.016 3.14 17c2.824 15.789 5.774 27.207 8.844 34.25Zm0 0" fill="#3d5658" data-color="1"></path>
        <path d="M436.299 686.71c-4.094.79-8.375.5-12.844-.875-4.469-1.375-8.16-3.89-11.078-7.546-2.914-3.649-4.758-7.45-5.531-11.407-1.32-6.824-.04-13.109 3.843-18.859 3.875-5.75 9.22-9.29 16.032-10.61 6.793-1.324 13.07-.038 18.828 3.86 5.761 3.895 9.297 9.238 10.61 16.031.78 4.032.523 8.235-.782 12.61-1.3 4.375-3.738 8.062-7.313 11.062-3.582 3-7.504 4.91-11.765 5.735Zm0 0" fill="#3d5658" data-color="1"></path>
    </g>
</svg>