<svg preserveAspectRatio="xMidYMid meet" data-bbox="0.111 0.466 272.28 136.911" xmlns="http://www.w3.org/2000/svg" viewBox="0.111 0.466 272.28 136.911" height="138" width="273" data-type="color" role="presentation" aria-hidden="true" aria-label="">
    <g>
        <path fill="#ffffff" d="M114.538 11.097c.124 0 .252.008.383.014 1.012.082 1.956.697 2.799 1.828 2.986 4.016 4.492 14.142 4.594 22.816 4.546-4.968 7.104-11.993 9.404-18.304 1.112-3.05 2.164-5.932 3.346-8.426-3.219-.907-5.68-2.12-7.904-3.213-3.51-1.732-6.548-3.231-11.23-2.885-2.927.212-5.289 1.978-6.471 4.837-1.504 3.625-.863 8.162 1.593 12.132-.453-2.284-.59-5.27.482-7.11.65-1.111 1.682-1.69 3.004-1.69Zm39.519-2.131c2.875 0 5.127 1.077 6.568 3.146 3.298 4.743 2.223 14.427-2.692 25.012 3.625-2.896 7.028-6.637 10.074-9.984 5.062-5.56 9.429-10.367 13.592-10.429 1.583-.014 3.077.663 4.419 2.049 1.338 1.383 1.8 3.024 1.369 4.883-1.04 4.495-7.288 9.46-13.717 12.503 7.855-1.592 16.678-6.569 19.006-12.69 1.447-3.792.301-7.61-3.394-11.345-4.887-4.933-9.461-5.033-15.799-5.163-5.715-.122-12.824-.27-22.444-4.245-3.548-1.471-6.437-1.672-8.837-.615-2.427 1.065-4.22 3.335-5.762 6.32 3.964.963 9.052 1.4 16.278.631.462-.048.907-.073 1.339-.073ZM76.309 46.592c-.13.885-.343 1.763-.655 2.63-2.331 6.55-1.673 11.379 1.914 13.969 3.293 2.38 8.35 2.346 11.83 1.216-4.082.269-5.988-1.332-6.816-2.46-1.625-2.216-1.446-5.566.471-8.754 2.552-4.234 8.292-8.304 16.925-7.516-4.47-4.132-8.743-2.959-15.524-1.091-2.427.666-5.082 1.4-8.145 2.006Zm135.394 10.95c1.854 2.707 3.097 5.383 2.237 8.083-1.296 4.07-7.362 7.842-19.928 12.252 10.601-2.032 17.441-3.296 32.435-3.421-.196-5.875-5.468-10.76-14.744-16.913Zm-105.299 23.13c7.924 0 15.731 2.7 22.742 5.13 3.525 1.215 6.851 2.369 9.976 3.12 2.306.552 4.756-.624 6.381-3.067 1.915-2.88 2.865-7.89-.088-13.24.755 5.007.156 8.754-1.698 10.245-.786.629-1.739.762-2.612.363-1.427-.655-2.357-2.54-2.431-4.915-.371-11.588 3.418-19.534 8.372-24.318-.337-.986-.822-1.836-1.449-2.55-3.392-3.852-10.292-3.007-15.189-2.035-8.607 1.709-14.727.127-19.197-1.026-4.407-1.14-7.07-1.828-9.319.989-3.451 4.319-9.05 22.278-5.23 29.06 1.14 2.023 2.987 2.842 5.633 2.502a32.254 32.254 0 0 1 4.109-.258Zm15.873 4.97c.023 0 .048 0 .071.006 1.191.176 2.201 1.698 3.085 4.66 1.659 5.554 2.524 14.932 2.785 21.849.085 2.279.239 8.114-.212 12.082a1349.132 1349.132 0 0 1 39.672-8.366c1.04-3.327 1.525-9.146 1.247-15.786-.371-8.884-1.973-16.037-4.075-18.228-4.747-4.94-11.851-9.794-18.995-12.98a.48.48 0 0 1-.258-.589c1.883-5.586 2.462-10.018 1.747-13.246-4.6 4.65-8.06 12.252-7.714 23.233.08 2.406 1.058 3.701 1.875 4.073.547.255 1.103.17 1.61-.239 1.43-1.147 2.42-4.826.916-11.712a.48.48 0 0 1 .854-.386c4.773 6.487 3.746 12.875 1.418 16.375-1.857 2.786-4.691 4.115-7.405 3.463-3.167-.76-6.519-1.918-10.067-3.146-8.119-2.808-17.322-5.996-26.414-4.826-3.037.388-5.255-.612-6.59-2.981-4.068-7.221 1.653-25.546 5.317-30.128 2.637-3.299 5.853-2.468 10.305-1.318 4.382 1.13 10.383 2.681 18.771 1.015 5.128-1.02 12.379-1.885 16.097 2.34a8.123 8.123 0 0 1 1.489 2.48c1.997-1.763 4.155-3.032 6.285-3.846 5.955-2.272 12.035-1.088 15.487 3.022 3.031 3.61 3.315 8.28.726 12.191-2.391 3.625-7.791 6.994-15.516 5.56 7.813 5.048 13.094 3.041 19.648.55 3.8-1.442 8.108-3.08 13.558-3.607 7.229-.7 11.71-2.854 13.318-6.41 2.186-4.824-1.665-10.773-2.899-12.479-5.748-7.96-16.559-8.275-24.615-7.136-9.671 1.372-18.61 5.255-21.874 7.575a.477.477 0 0 1-.726-.555c.502-1.352.51-2.324.023-2.893-1.447-1.687-7.249-.51-12.859.629-6.78 1.377-13.791 2.797-17.531.75a.473.473 0 0 1-.239-.52c.443-2.061.692-4.892.746-8.052a20.29 20.29 0 0 1-.978.822.486.486 0 0 1-.391.096.494.494 0 0 1-.327-.244c-11.003-19.962-29.539-24.32-42.065-21.985-3.12.578-5.074 1.635-5.978 3.23-1.529 2.698-.014 6.768 1.738 11.48 1.65 4.439 3.477 9.341 3.086 14.13 2.906-.592 5.448-1.289 7.779-1.932 7.353-2.023 12.208-3.358 17.438 2.327a.482.482 0 0 1-.423.799c-8.936-1.31-14.815 2.706-17.341 6.9-1.716 2.849-1.915 5.796-.522 7.692 1.511 2.055 4.679 2.621 8.924 1.601a.48.48 0 0 1 .406.845c-3.046 2.363-10.85 3.627-15.68.142-2.765-1.999-5.402-6.232-2.252-15.066.25-.697.431-1.403.553-2.114-1.012.187-2.067.36-3.17.507-3.31.456-6.401.694-9.13.907-6.369.49-10.58.813-10.393 3.225.723 9.474.386 14.159.159 17.256-.184 2.54-.284 3.888.363 5.87C67.495 75.827 71.675 88.066 74.23 95.54c.436 1.284.82 2.392 1.196 3.299 1.092 2.615 3.76 2.162 12.047.322 5.576-1.238 13.213-2.933 24.024-4.23 5.436-.652 8.851-1.928 10.141-3.784 1.009-1.454.621-3.066.275-4.483-.037-.15-.068-.298-.102-.437a.478.478 0 0 1 .465-.586Zm5.592 39.608c-.116.754-.263 1.397-.445 1.896 13.17-.694 36.351-5.563 39.153-8.961.258-.317.499-.737.723-1.261a1355.534 1355.534 0 0 0-39.431 8.326Zm-74.37-49.693c.29.728.676 1.553 1.172 2.542 2.033 4.072 11.083 24.726 18.147 51.422.984 3.713 1.966 5.56 3.398 6.365 2.13 1.21 5.541.224 11.735-1.564l1.131-.329c9.648-2.777 22.957-6.113 37.928-9.528.808-7.073.105-25.174-2.495-33.883-.551-1.839-1.07-2.837-1.489-3.375.286 1.346.448 2.981-.599 4.486-1.477 2.123-5.016 3.492-10.816 4.189-10.76 1.292-18.374 2.981-23.93 4.214-8.022 1.782-11.687 2.593-13.141-.89-.389-.932-.775-2.055-1.217-3.355-2.447-7.159-6.438-18.838-19.823-20.294Zm25.048 61.82c-1.09 0-2.002-.201-2.805-.655-1.676-.949-2.793-2.964-3.851-6.957-7.045-26.614-16.054-47.186-18.08-51.238-.603-1.205-1.049-2.194-1.366-3.061a25.113 25.113 0 0 0-1.812-.063H.59a.478.478 0 1 1 0-.957h50.043c.507 0 1 .011 1.486.037-.584-1.993-.477-3.438-.3-5.867.217-3.075.555-7.714-.163-17.117-.258-3.367 4.33-3.718 11.276-4.254 2.714-.207 5.791-.445 9.07-.895a71.013 71.013 0 0 0 3.44-.561c.462-4.67-1.362-9.57-3.004-13.989-1.838-4.937-3.423-9.202-1.673-12.288 1.052-1.854 3.222-3.064 6.633-3.701 6.792-1.261 14.625-.372 21.488 2.446 8.899 3.652 16.069 10.222 21.318 19.526.394-.332.777-.675 1.143-1.032-.009-8.686-1.455-19.282-4.396-23.239-.672-.9-1.381-1.385-2.107-1.442-1.146-.094-1.957.3-2.481 1.201-1.475 2.531-.173 8.097.448 9.013a.484.484 0 0 1-.105.649.483.483 0 0 1-.655-.066c-4.064-4.698-5.428-10.769-3.48-15.467 1.33-3.211 3.99-5.187 7.291-5.43 4.943-.357 8.085 1.187 11.724 2.981 2.303 1.136 4.742 2.34 7.901 3.214 1.659-3.256 3.601-5.756 6.33-6.952 2.648-1.165 5.788-.97 9.591.604 9.452 3.908 16.46 4.055 22.095 4.174 6.312.133 11.304.238 16.457 5.447 3.93 3.97 5.181 8.241 3.615 12.359-2.824 7.416-14.613 13.223-23.433 13.793a.473.473 0 0 1-.499-.377.484.484 0 0 1 .303-.55c7.056-2.545 15.371-8.332 16.508-13.24.352-1.516-.025-2.86-1.126-3.996-1.165-1.204-2.387-1.777-3.712-1.757-3.746.056-7.991 4.721-12.9 10.117-3.514 3.863-7.499 8.244-11.798 11.31a.482.482 0 0 1-.59-.025.489.489 0 0 1-.116-.58c5.405-10.798 6.863-21.18 3.624-25.833-1.463-2.108-3.823-3.004-7.013-2.666-7.43.79-12.719.294-16.812-.723-1.199 2.494-2.263 5.413-3.391 8.513-2.448 6.711-5.184 14.221-10.298 19.353-.019 3.401-.261 6.502-.717 8.82 3.542 1.638 10.45.235 16.567-1.006 6.418-1.304 11.965-2.429 13.777-.315.548.638.715 1.49.511 2.585 3.97-2.395 12.299-5.776 21.201-7.031 8.321-1.18 19.503-.828 25.53 7.518 1.678 2.327 5.328 8.287 2.994 13.436-1.761 3.891-6.505 6.235-14.1 6.972-5.32.512-9.563 2.122-13.306 3.548-7.391 2.805-13.224 5.021-22.628-2.137a.477.477 0 0 1-.136-.598.476.476 0 0 1 .564-.241c8.553 2.596 14.463-.836 16.925-4.56 2.342-3.54 2.09-7.776-.661-11.05-3.185-3.791-8.839-4.868-14.412-2.743-2.138.816-4.305 2.12-6.296 3.945.933 3.387.434 8.043-1.492 13.904 7.119 3.239 14.155 8.08 18.896 13.013 2.74 2.851 4.041 11.605 4.348 18.849.215 5.166-.017 11.56-1.146 15.624 15.538-3.016 31.003-5.717 44.666-7.683l.763-.105c7.07-1.012 9.713-1.389 9.585-7.462-.11-5.288 1.01-15.842 2.49-23.525.097-.501.159-.995.188-1.482-15.153.13-21.931 1.431-32.792 3.511-2.042.391-4.158.797-6.532 1.233a.48.48 0 0 1-.55-.354.474.474 0 0 1 .321-.573c16.695-5.251 24.76-9.533 26.147-13.892.857-2.683-.686-5.458-3.636-9.338a.48.48 0 0 1 .029-.615.487.487 0 0 1 .612-.076c10.936 7.04 17.192 12.413 17.379 19.143.513-.005 1.038-.005 1.574-.005h42.896a.48.48 0 1 1 0 .958h-42.896c-.539 0-1.069.002-1.588.005a13.27 13.27 0 0 1-.207 1.664c-1.475 7.629-2.584 18.095-2.476 23.323.145 6.924-3.383 7.425-10.408 8.429l-.76.11c-13.802 1.987-29.44 4.721-45.134 7.774-.309.858-.672 1.57-1.097 2.083-3.262 3.959-28.476 8.861-40.71 9.346a.478.478 0 0 1-.463-.295.482.482 0 0 1 .125-.538c.244-.213.445-.853.601-1.825-14.803 3.381-27.962 6.682-37.522 9.437l-1.132.326c-4.355 1.255-7.39 2.134-9.667 2.134Z" data-color="1"></path>
    </g>
</svg>