<svg preserveAspectRatio="xMidYMid meet" data-bbox="7.187 0.421 67.546 81.92" xmlns="http://www.w3.org/2000/svg" viewBox="7.187 0.421 67.546 81.92" height="83" width="82" data-type="color" role="presentation" aria-hidden="true" aria-label="">
    <g>
        <g clip-path="url(#769f3163-72a5-4e80-ad61-7b0d5b959383_comp-lnvqj7d5__item1)">
            <path fill="#6B6563" d="M41.847 24.08c-5.374 0-9.742-5.326-9.742-11.853 0-6.479 4.368-11.806 9.742-11.806 5.423 0 9.79 5.327 9.79 11.806 0 6.527-4.367 11.854-9.79 11.854Zm0-21.739c-4.319 0-7.822 4.463-7.822 9.886 0 5.47 3.503 9.934 7.822 9.934 4.368 0 7.87-4.463 7.87-9.934 0-5.423-3.502-9.886-7.87-9.886Z" clip-rule="evenodd" fill-rule="evenodd" data-color="1"></path>
            <path fill="#6B6563" d="M73.425 72.503c-.624 0-1.056-.48-.912-1.248.288-1.728-10.174-32.49-11.997-38.632-.816-2.64-3.6-3.264-3.695-3.311-5.951-1.2-9.934-4.128-12.238-6.335-.912-.912.432-2.256 1.344-1.392 2.111 2.064 5.807 4.751 11.278 5.855.143.048 3.983.912 5.134 4.655.768 2.735 2.592 8.206 4.511 14.013 7.151 21.644 8.783 26.395 6.575 26.395ZM9.502 70.295a.948.948 0 0 1-.672-.288c-.528-.528-.528-.528 3.552-11.565 3.263-8.83 7.726-20.972 9.262-26.347 1.2-3.743 4.99-4.607 5.135-4.655 5.47-1.104 9.118-3.743 11.23-5.759.911-.912 2.207.48 1.295 1.392-2.255 2.16-6.239 5.039-12.141 6.238-.096.048-2.832.672-3.648 3.36-1.583 5.375-6.047 17.564-9.31 26.443-1.823 4.799-3.503 9.406-3.743 10.27-.048.527-.384.911-.96.911Z" clip-rule="evenodd" fill-rule="evenodd" data-color="1"></path>
            <path fill="#6B6563" d="M27.258 82.34c-2.688 0-4.32-3.215-1.92-5.806.336-.336.912-.624 1.872-1.056 8.782-4.031 6.143-6.383 9.982-7.678 2.783-.96 5.855.624 6.095.767 2.64 1.968 10.366-.527 13.149-1.631 1.152-.48 1.872 1.295.72 1.775-1.104.432-10.942 4.32-14.973 1.44-1.248-.768-4.991-1.775-6.479 1.536-.048.096-.096.144-.144.24-3.407 4.079-8.302 5.47-8.83 5.95-1.344 1.344-.336 3.024 1.104 2.4 2.16-.912 9.838-3.791 18.572-3.263 3.263.144 16.94.192 18.716.384 2.592.288 7.39-1.008 7.343-5.855-.048-.336-.384-3.695-4.943-5.903-5.951-2.495-24.86-4.415-15.165-19.1.72-1.056 2.303 0 1.632 1.056-7.919 11.901 5.758 13.149 14.205 16.268.048 0 .048.048.096.048 7.678 3.696 7.054 10.366 3.55 13.39-2.639 2.303-6.382 2.063-6.862 2.015l-18.668-.384c-11.566-.432-16.94 3.408-19.052 3.408Z" clip-rule="evenodd" fill-rule="evenodd" data-color="1"></path>
            <path fill="#6B6563" d="M22.411 79.893c-4.415 0-9.358-.624-12.093-3.12-2.256-2.063-2.976-6.334-.816-9.453 1.584-2.352 4.463-3.84 8.638-4.463 7.199-1.248 12.142-3.84 13.534-7.103 1.007-2.255.431-4.991-1.632-8.158-.72-1.056.864-2.112 1.584-1.056 7.582 11.422-3.744 16.653-13.15 18.188-3.647.528-6.094 1.776-7.39 3.648-1.536 2.207-1.056 5.518.528 7.006 2.207 2.016 7.006 2.88 13.485 2.543 1.248-.095 1.392 1.824.096 1.92-.864.048-1.824.048-2.784.048Z" clip-rule="evenodd" fill-rule="evenodd" data-color="1"></path>
            <path fill="#6B6563" d="M18.284 64.728c-.816 0-1.247-.96-.72-1.583 5.183-6.047 12.382-16.51 12.478-16.605.72-1.056 2.303 0 1.584 1.056-.096.096-7.343 10.654-12.622 16.796a.863.863 0 0 1-.72.336Zm47.415 0a.864.864 0 0 1-.72-.336c-5.279-6.142-12.526-16.7-12.621-16.796-.672-1.008.911-2.112 1.583-1.056.096.096 7.295 10.558 12.478 16.605.528.623.096 1.583-.72 1.583Z" clip-rule="evenodd" fill-rule="evenodd" data-color="1"></path>
            <path fill="#4F6B69" d="M41.32 33.678c-4.704 0-4.704-7.198 0-7.198 4.75 0 4.75 7.198 0 7.198Zm0-5.278c-2.208 0-2.208 3.359 0 3.359 2.207 0 2.207-3.36 0-3.36Zm0 14.157c-4.704 0-4.704-7.15 0-7.15 4.75 0 4.75 7.15 0 7.15Zm0-5.231c-2.208 0-2.208 3.311 0 3.311 2.207 0 2.207-3.311 0-3.311Zm0 14.109c-4.704 0-4.704-7.15 0-7.15 4.75 0 4.75 7.15 0 7.15Zm0-5.231c-2.208 0-2.208 3.311 0 3.311 2.207 0 2.207-3.311 0-3.311Zm0 14.157c-4.704 0-4.704-7.198 0-7.198 4.75 0 4.75 7.198 0 7.198Zm0-5.279c-2.208 0-2.208 3.36 0 3.36 2.207 0 2.207-3.36 0-3.36Z" clip-rule="evenodd" fill-rule="evenodd" data-color="2"></path>
            <path fill="#6B6563" d="m41.32 39.917-28.267-7.006c-1.2-.288-.768-2.16.48-1.824l28.026 6.959c1.104.288.864 1.871-.24 1.871Zm0 8.926c-1.105 0-1.345-1.583-.289-1.92l27.355-8.11c1.2-.383 1.727 1.488.528 1.824l-27.595 8.206Z" clip-rule="evenodd" fill-rule="evenodd" data-color="1"></path>
            <path fill="#6B6563" d="M10.75 34.974c-4.751 0-4.751-7.198 0-7.198 4.703 0 4.703 7.198 0 7.198Zm0-5.278c-2.208 0-2.208 3.359 0 3.359 2.207 0 2.207-3.36 0-3.36Zm60.42 12.86c-4.752 0-4.752-7.15 0-7.15 4.75 0 4.75 7.15 0 7.15Zm0-5.23c-2.208 0-2.208 3.311 0 3.311 2.207 0 2.207-3.311 0-3.311Z" clip-rule="evenodd" fill-rule="evenodd" data-color="1"></path>
        </g>
        <defs fill="none">
            <clipPath id="769f3163-72a5-4e80-ad61-7b0d5b959383_comp-lnvqj7d5__item1">
                <path transform="translate(0 .421)" fill="#ffffff" d="M81.919 0v81.919H0V0h81.919z"></path>
            </clipPath>
        </defs>
    </g>
</svg>