<svg preserveAspectRatio="xMidYMid meet" data-bbox="-249.59 0.945 700.712 489.822" xmlns="http://www.w3.org/2000/svg" viewBox="0 0 452 491" height="491" width="452" data-type="ugc" role="presentation" aria-hidden="true" aria-label="">
    <g>
        <g clip-path="url(#e8419259-80c0-447b-991e-9cd8c59e0c26_comp-lqcsg516__53648756-e465-4509-85e0-e50131780a68)">
            <path fill="#ffffff" d="M451.122 223.88v43.952c0 123.124-99.811 222.935-222.935 222.935h-4.691C100.372 490.767.561 390.956.561 267.832V223.88C.561 100.756 100.372.945 223.496.945h4.691c123.124 0 222.935 99.811 222.935 222.935z"></path>
            <g clip-path="url(#44e4ddf3-a423-49de-b26e-9042ea67ca2f_comp-lqcsg516__53648756-e465-4509-85e0-e50131780a68)">
                <path stroke-linejoin="round" stroke-linecap="round" stroke="#3C5657" d="M382.358 429.169c-11.767-7.971 1.675-41.068-1.29-43.485-3.93-3.203-44.286-25.171-48.072-25.739-3.785-.568-13.009 2.301-16.415 2.49-3.407.188-4.303-2.111-2.744-4.005 1.558-1.892.045-5.299.802-7.57.756-2.271-1.325-2.65 0-4.921 1.324-2.271 6.245-4.353 9.462-4.353 3.217 0 3.343-3.786 16.97 4.605 13.333 8.21 31.858 12.049 38.292 15.646 6.435 3.596 4.543 5.205 3.218 4.637-1.324-.568-6.529-8.8-6.529-15.803 0-7.002-3.502-21.165-3.502-26.48 0-5.315 10.03-10.993 17.033-10.046 7.003.946 10.598 14.951 10.977 13.815.379-1.135 1.893-26.118-4.163-32.552-6.057-6.435-14.573-10.788-19.683-9.463-5.11 1.325-20.061 28.767-32.173 31.606-12.112 2.839-3.269-.65 1.199-7.065 4.668-6.704 4.568-12.67 2.303-16.024-1.837-2.718 1.23-6.434-.789-1.262-3.873 9.924-8.328 7.822-10.598 5.93-2.27-1.892-4.979-1.173-5.736-1.804-.757-.631-.183-6.911.374-6.839.978.126-.82 5.803-2.271 5.993-1.451.189-1.703-1.767-3.407-1.514-1.703.252-3.154-.127-2.46-1.64.695-1.515 1.767-2.776 1.451-.757-.523 3.351-4.717 4.461-5.551 3.974-1.514-.883-2.12-10.535-5.886-10.535-3.765 0-12.697-7.946-12.85-13.69-.126-4.731 7.318-7.192 11.987-7.507 8.527-.576 5.426-8.832 16.276-8.958 10.851-.126 14.762 4.668 17.033 11.481 2.271 6.814 7.949 16.528 16.907 18.926 8.958 2.398 10.977-6.434 22.08-3.154 9.631 2.845 16.099 11.36 17.028 16.739.573 3.322.91 1.885 1.772-2.86 1.424-7.84-1.667-10.652-6.435-13.501-5.14-3.071-3.43-5.44-5.961-9.462-3.533-5.614-11.383-3.642-11.45-8.201-.126-8.453-5.561-13.993-11.733-14.636-9.085-.946-10.75-6.941-16.528-13.626-6.435-7.445-17.286-12.113-31.417-10.22-10.63 1.423-22.19 10.355-25.257 23.341-3.432 14.536 4.499 21.083 3.592 16.421-.887-4.566-.411-11.625 2.992-18.944 4.163-8.958 14.635-15.519 27.631-14.258 12.996 1.262 21.322 8.705 25.612 17.79 5.976 12.655 4.668 25.36 1.262 35.201-3.29 9.506-6.144 17.602-18.925 27.253-6.182 4.668-26.922 15.196-20.44 28.641 1.316 2.728 8.421 17.497-1.515 23.847-15.595 9.965-22.005 23.809-23.383 35.27-1.704 14.175 3.14 31.043 19.598 37.53 19.827 7.816 47.455-4.045 48.532-23.065 1.331-23.527-42.707-8.972-35.757-4.535 7.241 4.624 10.393-26.634-6.231-28.841-18.723-2.486-22.383 31.98-14.208 41.9 5.562 6.75 12.499 1.951 9.106-1.719-.879-.952-2.136-1.467-3.431-1.467H-249.59" fill="none"></path>
            </g>
        </g>
        <defs fill="none">
            <clipPath id="e8419259-80c0-447b-991e-9cd8c59e0c26_comp-lqcsg516__53648756-e465-4509-85e0-e50131780a68">
                <path fill="#ffffff" d="M451.122 223.885v43.942c0 123.126-99.814 222.94-222.94 222.94h-4.681c-123.126 0-222.94-99.814-222.94-222.94v-43.942C.561 100.759 100.375.945 223.501.945h4.681c123.126 0 222.94 99.814 222.94 222.94z"></path>
            </clipPath>
            <clipPath id="44e4ddf3-a423-49de-b26e-9042ea67ca2f_comp-lqcsg516__53648756-e465-4509-85e0-e50131780a68">
                <path transform="matrix(-1 0 0 1 450.842 221.481)" fill="#ffffff" d="M748 0v257H0V0h748z"></path>
            </clipPath>
        </defs>
    </g>
</svg>